<svg width="188" height="51" viewBox="0 0 188 51" fill="none" xmlns="http://www.w3.org/2000/svg">
<path d="M42.9215 42.9031C52.7099 33.14 52.7099 17.3108 42.9215 7.54773C33.1332 -2.21537 17.2631 -2.21537 7.47475 7.54773C-2.3136 17.3108 -2.3136 33.14 7.47475 42.9031C17.2631 52.6662 33.1332 52.6662 42.9215 42.9031Z" fill="#502266"/>
<path fill-rule="evenodd" clip-rule="evenodd" d="M32.6883 16.4509L36.5725 14.2142C31.4853 11.3948 23.354 7.76518 19.163 10.9392C17.3219 12.3322 15.5618 15.5513 15.5398 15.5361C15.5313 15.5299 15.8953 14.9714 16.4959 14.3633C16.4959 14.3633 16.6409 14.217 16.7886 14.081C17.4799 13.4457 19.0265 12.2362 21.2774 11.9708C22.7029 11.8014 23.812 12.0837 24.6012 12.2831C25.7051 12.5654 26.4988 12.9499 27.5337 13.492C28.8573 14.1826 30.6196 15.1566 32.6883 16.4509Z" fill="white"/>
<path fill-rule="evenodd" clip-rule="evenodd" d="M32.4697 16.7987L27.3242 13.8427C23.5476 11.6698 20.1644 12.0645 17.8416 13.7371C16.9383 14.3936 16.1856 15.2346 15.6337 16.2041C15.0728 17.1777 14.7219 18.2574 14.6034 19.3741C14.3096 22.2054 15.5658 25.298 19.0333 27.4155C21.4399 28.8272 23.8454 30.1863 26.265 31.5749C27.3406 32.196 28.7605 32.3931 29.4653 31.1796C30.0631 30.148 29.5904 29.0214 28.585 28.4421L20.529 23.8118C18.4661 22.626 17.6242 20.2878 18.8499 18.2177C20.1644 15.9969 22.8269 15.7287 24.9867 16.9721L32.4697 21.2759V16.7987Z" fill="white"/>
<path fill-rule="evenodd" clip-rule="evenodd" d="M17.7074 33.9995L13.8238 36.2362C18.9105 39.055 27.0423 42.6846 31.2333 39.5112C33.0744 38.1182 34.8344 34.899 34.8565 34.9143C34.865 34.9205 34.501 35.4789 33.9003 36.0865C33.9003 36.0865 33.7548 36.2328 33.6076 36.3689C32.9164 37.0047 31.3698 38.2136 29.1188 38.4796C27.6928 38.649 26.5843 38.3666 25.7951 38.1668C24.6912 37.8844 23.8975 37.5005 22.8626 36.9584C21.539 36.2678 19.7766 35.2937 17.7074 33.9995Z" fill="#FF7F00"/>
<path fill-rule="evenodd" clip-rule="evenodd" d="M17.9265 33.6517L23.0721 36.6077C26.8487 38.7805 30.2319 38.3853 32.5541 36.7133C33.4576 36.0569 34.2103 35.2159 34.762 34.2463C35.3229 33.2727 35.6738 32.1929 35.7923 31.0763C36.0856 28.245 34.8299 25.1523 31.3624 23.0349C28.9552 21.6232 26.5503 20.264 24.1307 18.8755C23.0551 18.2544 21.6347 18.0573 20.9304 19.2708C20.3326 20.3024 20.8047 21.4289 21.8107 22.0083L29.8667 26.6385C31.9297 27.8243 32.7715 30.1626 31.5458 32.2327C30.2307 34.4535 27.5688 34.7217 25.4085 33.4749L17.9243 29.1699V33.6443L17.9265 33.6517Z" fill="#FF7F00"/>
<path d="M60.2617 25.9814C61.1575 27.0238 62.5431 28.3194 64.5915 28.3194C65.6792 28.3194 67.0819 27.7349 67.0819 26.4616C67.0819 23.9144 59.1075 24.2695 59.1075 19.5718C59.1075 16.5659 62.0795 15.0208 64.8006 15.0208C66.8311 15.0208 68.84 15.5421 70.5145 17.4639L68.2749 19.1966C67.3537 18.0484 65.9308 17.484 64.7797 17.484C63.5658 17.484 62.2676 18.1727 62.2676 19.4669C62.2676 22.0767 70.2218 21.5964 70.2218 26.3172C70.2218 29.1564 66.9983 30.7431 64.5281 30.7431C61.6816 30.7431 60.1542 29.7617 58.3535 27.6739L60.2617 25.9814Z" fill="#502266"/>
<path d="M71.3939 35V19.4676H74.4285V21.4512C75.1407 19.8228 76.5009 19.0506 77.9872 18.9665C80.8128 18.7997 84.0572 21.1169 84.0572 24.8958C84.0572 28.5495 80.8964 30.7833 78.029 30.7833C76.6054 30.7833 75.287 30.2405 74.4285 29.0923V35H71.3939ZM77.5901 28.4475C79.2645 28.4899 80.9808 27.2785 80.9808 24.8779C80.9808 22.7692 79.4131 21.6016 77.7991 21.5376C76.1455 21.4542 74.4502 22.5607 74.4502 24.9404C74.4494 27.2755 75.9985 28.4237 77.5893 28.4445L77.5901 28.4475Z" fill="#502266"/>
<path d="M85.3972 15H88.4528V21.1586C89.2687 19.927 90.7759 19.0923 91.948 19.0923C95.653 19.0923 96.0927 21.9315 96.0927 23.4974V30.3864H93.0342V23.3924C93.0342 22.2651 92.4482 21.4721 91.3172 21.4721C89.8517 21.4721 88.4707 22.5577 88.4707 24.1028V30.3864H85.3972V15Z" fill="#502266"/>
<path d="M108.107 27.0045C106.83 29.4468 105.324 30.6158 102.665 30.6158C99.2117 30.6158 96.8042 28.2569 96.8042 24.8124C96.8042 21.3261 99.1699 18.8831 102.707 18.8831C107.186 18.8831 108.295 21.7431 108.295 25.6471H99.8814C100.09 27.1296 101.137 28.3194 102.707 28.3194C103.733 28.3194 104.381 27.7982 104.926 27.0045H108.107ZM105.196 23.3299C104.966 22.0357 104.066 21.2003 102.726 21.2003C102.097 21.2025 101.487 21.4128 100.991 21.7982C100.495 22.1836 100.141 22.7223 99.9844 23.3299H105.196Z" fill="#502266"/>
<path d="M112.063 21.3053C112.735 20.0313 113.905 18.9873 115.391 18.9873C116.228 18.9873 117.087 19.3217 117.882 20.0521L116.605 22.2025C115.831 21.6813 114.972 21.4512 114.216 21.5324C113.022 21.6575 112.06 22.5972 112.06 24.3924V30.3842H109.01V19.4051H112.066L112.063 21.3053Z" fill="#502266"/>
<path d="M129.017 27.0045C127.74 29.4468 126.233 30.6158 123.575 30.6158C120.121 30.6158 117.714 28.2569 117.714 24.8124C117.714 21.3261 120.079 18.8831 123.617 18.8831C128.096 18.8831 129.206 21.7431 129.206 25.6471H120.792C121.001 27.1296 122.047 28.3194 123.617 28.3194C124.642 28.3194 125.292 27.7982 125.836 27.0045H129.017ZM126.105 23.3299C125.875 22.0357 124.975 21.2003 123.636 21.2003C123.007 21.2018 122.396 21.4118 121.9 21.7973C121.403 22.1828 121.049 22.7219 120.894 23.3299H126.105Z" fill="#502266"/>
<path d="M131.278 25.9814C132.174 27.0238 133.559 28.3194 135.608 28.3194C136.696 28.3194 138.099 27.7349 138.099 26.4617C138.099 23.9144 130.125 24.2696 130.125 19.5719C130.125 16.5659 133.097 15.0209 135.818 15.0209C137.847 15.0209 139.857 15.5421 141.532 17.4639L139.292 19.1966C138.371 18.0484 136.948 17.484 135.797 17.484C134.583 17.484 133.285 18.1728 133.285 19.4669C133.285 22.0767 141.239 21.5964 141.239 26.3172C141.239 29.1564 138.015 30.7431 135.545 30.7431C132.699 30.7431 131.171 29.7617 129.371 27.6739L131.278 25.9814Z" fill="#FF7F00"/>
<path d="M153.486 27.0045C152.208 29.4468 150.702 30.6158 148.044 30.6158C144.59 30.6158 142.183 28.2569 142.183 24.8124C142.183 21.3262 144.548 18.8831 148.085 18.8831C152.565 18.8831 153.674 21.7431 153.674 25.6471H145.26C145.469 27.1296 146.515 28.3195 148.085 28.3195C149.111 28.3195 149.76 27.7982 150.304 27.0045H153.486ZM150.574 23.3299C150.344 22.0358 149.444 21.2003 148.105 21.2003C147.476 21.2032 146.867 21.4138 146.371 21.7991C145.876 22.1845 145.522 22.7228 145.366 23.3299H150.574Z" fill="#FF7F00"/>
<path d="M157.442 21.3053C158.113 20.0313 159.283 18.9874 160.77 18.9874C161.606 18.9874 162.465 19.3217 163.26 20.0522L161.983 22.2026C161.209 21.6813 160.351 21.4513 159.595 21.5324C158.4 21.6575 157.439 22.5972 157.439 24.3924V30.3842H154.382V19.4051H157.439L157.442 21.3053Z" fill="#FF7F00"/>
<path d="M163.365 19.3634H166.588L169.707 26.2949L172.804 19.3634H175.965L171.046 30.3656H168.304L163.365 19.3634Z" fill="#FF7F00"/>
<path d="M187.246 27.0045C185.969 29.4468 184.462 30.6158 181.805 30.6158C178.35 30.6158 175.944 28.2569 175.944 24.8124C175.944 21.3262 178.309 18.8831 181.846 18.8831C186.326 18.8831 187.435 21.7431 187.435 25.6471H179.022C179.231 27.1296 180.277 28.3195 181.847 28.3195C182.872 28.3195 183.522 27.7982 184.066 27.0045H187.246ZM184.335 23.3299C184.105 22.0358 183.204 21.2003 181.865 21.2003C181.236 21.2018 180.625 21.4118 180.129 21.7973C179.632 22.1828 179.279 22.7219 179.123 23.3299H184.335Z" fill="#FF7F00"/>
</svg>
