<svg width="391" height="400" viewBox="0 0 391 400" fill="none" xmlns="http://www.w3.org/2000/svg">
<path d="M341.372 71.1094C340.87 71.6625 340.453 72.2869 340.135 72.9621C339.481 74.2779 339.135 75.7253 339.124 77.1945C339.113 77.9263 339.173 78.6574 339.303 79.3777L339.424 78.9906C338.932 79.4462 338.41 79.8936 337.889 80.3186C337.627 80.5299 337.361 80.7355 337.093 80.9186L336.645 81.208C336.468 81.3384 336.308 81.4896 336.168 81.6584C335.898 81.9507 335.689 82.2932 335.552 82.6662C335.415 83.0392 335.353 83.4356 335.37 83.8325C335.423 84.2505 335.571 84.6509 335.801 85.0038C336.032 85.3566 336.339 85.6527 336.701 85.8697L336.438 85.4488C336.593 86.9526 336.889 88.4385 337.322 89.8871C337.752 91.362 338.359 92.7795 339.13 94.1088C339.91 95.5256 341.011 96.7408 342.345 97.6574C343.065 98.1259 343.868 98.4519 344.711 98.618C345.564 98.7717 346.436 98.7852 347.292 98.658L347.058 98.5698C348.211 100.025 349.281 101.543 350.263 103.117L350.283 103.144L350.306 103.17C350.604 103.55 350.793 104.004 350.855 104.482C350.925 104.974 350.92 105.473 350.841 105.963C350.666 106.969 350.336 107.942 349.861 108.846C349.365 109.774 348.805 110.667 348.187 111.519C347.572 112.386 346.878 113.21 346.185 114.033L346.17 114.051C346.12 114.109 346.084 114.177 346.064 114.25C346.043 114.324 346.039 114.401 346.051 114.476C346.064 114.551 346.092 114.623 346.135 114.686C346.178 114.749 346.235 114.802 346.3 114.841C346.372 114.888 346.452 114.921 346.535 114.938C348.852 115.374 351.23 115.36 353.541 114.896C355.792 114.474 357.969 113.724 360.003 112.671L361.477 111.862C361.956 111.577 362.397 111.247 362.858 110.941C363.757 110.319 364.621 109.648 365.448 108.932C366.268 108.225 366.988 107.435 367.759 106.692L369.82 104.283C369.866 104.231 369.9 104.17 369.92 104.103C369.94 104.037 369.947 103.967 369.938 103.898C369.93 103.829 369.907 103.763 369.872 103.703C369.836 103.644 369.788 103.592 369.732 103.552C368.885 102.909 368.064 102.204 367.247 101.51C366.433 100.811 365.653 100.083 364.909 99.3249C364.168 98.5789 363.476 97.7852 362.839 96.9489C362.196 96.1478 361.71 95.2326 361.408 94.2514C361.402 94.2331 361.39 94.2177 361.373 94.2081C361.357 94.1986 361.337 94.1956 361.319 94.1998C361.302 94.2023 361.286 94.2109 361.275 94.2241C361.264 94.2373 361.258 94.2542 361.259 94.2713C361.428 95.3102 361.814 96.3018 362.392 97.1817C362.942 98.1001 363.574 98.9677 364.279 99.774C365.689 101.434 367.239 102.972 368.91 104.369L368.822 103.639L366.71 105.894C365.934 106.583 365.192 107.303 364.395 107.966C363.595 108.632 362.758 109.254 361.89 109.83C361.45 110.113 361.021 110.411 360.573 110.682L359.193 111.444C357.307 112.425 355.298 113.151 353.22 113.604C351.14 114.06 348.994 114.133 346.888 113.82L347.238 114.725C347.913 113.849 348.585 112.973 349.18 112.048C349.778 111.131 350.299 110.167 350.737 109.164C351.17 108.165 351.449 107.106 351.567 106.024C351.648 105.462 351.613 104.889 351.464 104.34C351.314 103.792 351.054 103.28 350.698 102.837L350.741 102.889C349.708 101.317 348.563 99.8424 347.448 98.3355C347.421 98.3016 347.386 98.2754 347.346 98.2597C347.305 98.244 347.262 98.2394 347.219 98.2463L347.214 98.2471C346.438 98.3745 345.644 98.3465 344.879 98.1645C344.114 97.9826 343.392 97.6504 342.757 97.1873C341.595 96.2594 340.669 95.0711 340.052 93.7187C339.432 92.3999 338.942 91.0233 338.59 89.6089C338.222 88.209 337.945 86.7869 337.761 85.3513L337.759 85.3381C337.747 85.2554 337.717 85.1763 337.672 85.106C337.627 85.0356 337.568 84.9757 337.497 84.9302C337.276 84.8095 337.085 84.6399 336.939 84.4342C336.793 84.2286 336.696 83.9923 336.655 83.7435C336.635 83.2167 336.813 82.7013 337.154 82.2996C337.229 82.2016 337.314 82.1118 337.408 82.0318C337.469 81.9847 337.533 81.9408 337.599 81.9004C337.684 81.8467 337.754 81.7905 337.833 81.7355C338.134 81.5134 338.408 81.2838 338.676 81.0506C339.213 80.5838 339.701 80.0975 340.19 79.5952L340.199 79.586C340.248 79.5373 340.284 79.4772 340.303 79.4111C340.323 79.3451 340.325 79.2752 340.311 79.2078C340.152 78.5411 340.048 77.8626 340 77.179C339.952 76.4938 339.973 75.8055 340.063 75.1245C340.149 74.4336 340.311 73.7543 340.546 73.0987C340.781 72.4263 341.099 71.7854 341.491 71.1905L341.494 71.1858C341.499 71.1783 341.503 71.1698 341.504 71.1609C341.506 71.1521 341.505 71.143 341.503 71.1343C341.5 71.1256 341.496 71.1176 341.49 71.1107C341.484 71.1038 341.477 71.0983 341.469 71.0945C341.453 71.0863 341.435 71.0832 341.418 71.0859C341.401 71.0886 341.384 71.0968 341.372 71.1094Z" fill="white"/>
<path d="M340.946 71.8425C340.946 71.8425 349.284 79.4132 356.324 80.1315C356.324 80.1315 358.49 78.4551 358.896 80.1315C359.303 81.8079 360.115 88.1547 355.782 87.3166C355.782 87.3166 351.45 92.4657 351.992 94.9804C352.008 95.0345 352.038 95.0838 352.078 95.1241C353.704 97.3839 366.743 95.9988 371.851 89.0167C376.217 83.048 374.198 73.7923 367.541 69.0066C360.229 63.7498 348.291 64.5827 340.946 71.8425Z" fill="white"/>
<path d="M363.287 84.582C363.287 84.582 357.002 91.4985 361.975 99.4978C366.949 107.497 368.08 107.438 369.157 111.25C369.157 111.25 373.287 105.533 372.389 98.8626C371.491 92.1926 367.404 84.923 363.287 84.582Z" fill="white"/>
<path d="M341.838 77.8554C342.967 77.6494 344.107 77.514 345.253 77.4501C345.81 77.4285 346.367 77.4493 346.919 77.5123C347.489 77.589 348.053 77.7036 348.607 77.8554C348.161 77.4582 347.63 77.168 347.055 77.0073C346.46 76.8379 345.842 76.7631 345.224 76.7857C344.615 76.8117 344.012 76.9149 343.428 77.0928C342.859 77.2566 342.322 77.5144 341.838 77.8554Z" fill="white"/>
<path d="M344.816 81.608C344.678 81.62 344.538 81.6032 344.407 81.5585C344.275 81.5138 344.154 81.4423 344.052 81.3485C343.949 81.2546 343.867 81.1405 343.811 81.0134C343.755 80.8863 343.726 80.7489 343.726 80.6101C343.726 80.4712 343.755 80.3339 343.811 80.2068C343.867 80.0796 343.949 79.9655 344.052 79.8717C344.154 79.7779 344.275 79.7063 344.407 79.6617C344.538 79.617 344.678 79.6001 344.816 79.6122C344.955 79.6001 345.094 79.617 345.226 79.6617C345.358 79.7063 345.478 79.7779 345.581 79.8717C345.683 79.9655 345.765 80.0796 345.821 80.2068C345.877 80.3339 345.906 80.4712 345.906 80.6101C345.906 80.7489 345.877 80.8863 345.821 81.0134C345.765 81.1405 345.683 81.2546 345.581 81.3485C345.478 81.4423 345.358 81.5138 345.226 81.5585C345.094 81.6032 344.955 81.62 344.816 81.608Z" fill="white"/>
<path d="M339.333 89.0522C339.517 89.4376 339.806 89.7637 340.166 89.9937C340.562 90.2627 341.025 90.4174 341.503 90.4405C341.996 90.4646 342.482 90.3223 342.884 90.0366C343.238 89.795 343.511 89.4518 343.666 89.0523C343.315 89.255 342.951 89.4358 342.578 89.5936C342.249 89.7318 341.892 89.7942 341.535 89.7762C340.76 89.6863 340.011 89.44 339.333 89.0522Z" fill="white"/>
<path d="M356.73 86.5777C356.592 86.5898 356.452 86.5729 356.32 86.5282C356.189 86.4835 356.068 86.412 355.965 86.3182C355.863 86.2243 355.781 86.1102 355.725 85.9831C355.669 85.856 355.64 85.7187 355.64 85.5798C355.64 85.4409 355.669 85.3036 355.725 85.1765C355.781 85.0494 355.863 84.9353 355.965 84.8414C356.068 84.7476 356.189 84.6761 356.32 84.6314C356.452 84.5867 356.592 84.5699 356.73 84.5819C356.869 84.5699 357.008 84.5867 357.14 84.6314C357.271 84.6761 357.392 84.7476 357.495 84.8414C357.597 84.9353 357.679 85.0494 357.735 85.1765C357.791 85.3036 357.82 85.4409 357.82 85.5798C357.82 85.7187 357.791 85.856 357.735 85.9831C357.679 86.1102 357.597 86.2243 357.495 86.3182C357.392 86.412 357.271 86.4835 357.14 86.5282C357.008 86.5729 356.869 86.5898 356.73 86.5777Z" fill="white"/>
<path d="M384.033 167.228C384.397 163.352 384.612 159.47 384.679 155.583C384.767 151.697 384.722 147.81 384.592 143.924C384.417 140.038 384.172 136.152 383.684 132.279C383.421 130.344 383.135 128.411 382.714 126.494C382.32 124.56 381.723 122.674 380.935 120.865C381.443 122.741 381.794 124.656 381.985 126.59C382.228 128.51 382.354 130.442 382.515 132.369C382.762 136.231 382.941 140.098 383.09 143.969L383.51 155.589C383.639 159.466 383.814 163.345 384.033 167.228Z" fill="white"/>
<path d="M346.712 114.379C343.743 118.234 341.039 122.287 338.619 126.508C337.374 128.598 336.363 130.818 335.602 133.128C335.417 133.739 335.307 134.369 335.274 135.006L335.298 136.777C335.329 137.956 335.382 139.131 335.446 140.305C335.598 142.65 335.797 144.991 335.995 147.322L336.136 149.058C336.148 149.617 336.123 150.176 336.062 150.731C335.949 151.885 335.813 153.048 335.681 154.21C335.105 158.858 334.529 163.517 334.031 168.186C335.107 163.592 336.072 158.984 336.845 154.34C337.042 153.179 337.231 152.018 337.374 150.841L337.47 149.949C337.499 149.636 337.511 149.322 337.506 149.009L337.416 147.239C337.26 144.896 337.074 142.566 336.947 140.234C336.872 139.069 336.808 137.905 336.766 136.743L336.725 135.002C336.757 134.465 336.844 133.933 336.985 133.414C337.671 131.177 338.572 129.012 339.677 126.949C341.851 122.708 344.254 118.533 346.712 114.379Z" fill="white"/>
<path d="M355.498 122.123C354.855 122.89 354.269 123.703 353.745 124.556C353.211 125.398 352.754 126.287 352.38 127.212C352.181 127.698 352.049 128.21 351.99 128.732C351.957 129.052 351.998 129.375 352.109 129.676C352.221 129.977 352.399 130.249 352.632 130.471C353.093 130.9 353.655 131.206 354.265 131.362C354.839 131.514 355.429 131.593 356.023 131.598L357.603 131.633L356.39 130.799C355.903 130.481 355.478 130.077 355.136 129.606C355.05 129.514 354.984 129.406 354.942 129.288C354.901 129.169 354.884 129.043 354.895 128.918C354.905 128.793 354.942 128.672 355.003 128.562C355.064 128.452 355.147 128.356 355.247 128.28C355.777 127.945 356.38 127.741 357.005 127.684C357.662 127.595 358.325 127.563 358.988 127.588C360.336 127.625 361.689 127.698 363.036 127.767L367.072 127.915C369.756 128.053 372.434 128.144 375.077 128.351C376.379 128.438 377.672 128.623 378.946 128.904C379.52 129.019 380.057 129.272 380.509 129.644C380.59 129.734 380.651 129.841 380.685 129.958C380.72 130.074 380.729 130.197 380.711 130.317C380.679 130.452 380.638 130.584 380.587 130.712L380.364 131.102L380.481 131.185L380.835 130.837C380.936 130.703 381.024 130.559 381.096 130.407C381.166 130.238 381.196 130.056 381.185 129.874C381.174 129.692 381.122 129.514 381.033 129.355C380.584 128.783 379.979 128.353 379.29 128.118C377.994 127.622 376.643 127.281 375.267 127.101C372.562 126.715 369.83 126.556 367.098 126.626C365.74 126.638 364.382 126.657 363.028 126.743L358.971 127.042C358.286 127.097 357.603 127.161 356.921 127.274C356.22 127.361 355.543 127.59 354.933 127.948C354.775 128.049 354.639 128.18 354.534 128.335C354.428 128.489 354.355 128.664 354.32 128.848C354.273 129.199 354.331 129.557 354.485 129.876C354.784 130.49 355.203 131.038 355.716 131.488L356.083 130.689C355.193 130.59 354.348 130.243 353.644 129.689C353.526 129.573 353.435 129.433 353.376 129.279C353.317 129.125 353.293 128.96 353.303 128.795C353.345 128.365 353.43 127.94 353.558 127.527C353.823 126.647 354.177 125.759 354.535 124.871L355.63 122.187L355.498 122.123Z" fill="white"/>
<path d="M377.862 128.186C378.074 133.039 378.247 137.891 378.285 142.744C378.355 147.596 378.323 152.449 378.16 157.295C378.063 159.717 377.979 162.139 377.798 164.551C377.714 165.757 377.6 166.963 377.434 168.141L377.138 169.945L376.879 171.758C376.238 176.589 375.61 181.413 375.085 186.249C374.553 191.084 373.986 195.915 373.527 200.755L372.825 208.016C372.772 208.634 372.709 209.202 372.667 209.865C372.692 210.196 372.749 210.524 372.836 210.844L373.056 211.739L373.986 215.292L375.879 222.381C376.021 222.967 376.199 223.578 376.284 224.137C376.321 224.723 376.284 225.31 376.175 225.887C375.955 227.079 375.657 228.256 375.283 229.41C374.535 231.75 373.624 234.036 372.557 236.25C372.094 237.389 371.398 238.419 370.514 239.275C370.302 239.478 370.042 239.623 369.758 239.697C369.474 239.77 369.176 239.769 368.892 239.694C368.34 239.474 367.874 239.079 367.566 238.57L367.37 238.268L367.128 238.547L366.522 239.243C366.318 239.473 366.074 239.666 365.853 239.88C365.395 240.287 364.846 240.578 364.252 240.729C363.962 240.791 363.663 240.794 363.372 240.739C363.08 240.684 362.803 240.572 362.556 240.409C362.068 240.077 361.664 239.638 361.373 239.126L361.194 238.809L360.906 239.054C360.425 239.484 359.895 239.857 359.327 240.164C359.098 240.325 358.827 240.418 358.547 240.43C358.266 240.442 357.988 240.374 357.746 240.233C357.353 239.821 357.109 239.29 357.054 238.723C356.958 238.134 356.928 237.535 356.965 236.939L356.99 236.497L356.5 236.607C355.869 236.774 355.213 236.829 354.562 236.769C354.284 236.752 354.015 236.666 353.779 236.52C353.542 236.373 353.346 236.169 353.208 235.928C352.965 235.421 352.885 234.852 352.978 234.298C353.057 233.734 353.33 233.215 353.751 232.832C354.613 231.964 355.821 231.248 356.848 230.335C357.895 229.454 358.74 228.358 359.324 227.121C359.825 225.928 360.193 224.684 360.423 223.411C360.555 222.781 360.652 222.144 360.711 221.504C360.804 220.806 360.735 220.097 360.51 219.43C360.417 219.216 360.283 219.023 360.114 218.861C360.015 218.767 359.903 218.687 359.78 218.626C359.702 218.578 359.617 218.544 359.528 218.523C359.456 218.506 359.383 218.494 359.31 218.489C359.251 218.491 359.193 218.496 359.136 218.503C358.859 218.557 358.6 218.679 358.382 218.859C358.234 218.976 358.091 219.101 357.956 219.233C357.449 219.733 357.031 220.239 356.604 220.743C355.761 221.752 354.942 222.756 354.071 223.713C353.218 224.677 352.283 225.565 351.278 226.369C350.848 226.742 350.344 227.018 349.799 227.18C349.726 227.201 349.65 227.205 349.575 227.192C349.501 227.18 349.43 227.151 349.368 227.108C349.204 226.975 349.078 226.801 349.002 226.603C348.898 226.356 348.821 226.099 348.774 225.835C348.73 225.587 348.729 225.334 348.77 225.086C348.864 224.563 349.1 224.075 349.454 223.678C350.325 222.625 350.963 221.4 351.325 220.083C351.7 218.854 351.985 217.6 352.177 216.33C352.324 215.117 352.574 213.919 352.922 212.748C353.259 211.602 353.833 210.54 354.608 209.631C354.996 209.193 355.451 208.819 355.956 208.523C356.207 208.381 356.471 208.263 356.744 208.17C356.986 208.086 357.238 208.031 357.493 208.007L358.281 207.942L358.29 207.313L358.559 187.347C358.598 184.019 358.629 180.69 358.61 177.36C358.599 175.689 358.605 174.04 358.539 172.341C358.478 170.687 358.422 169.032 358.39 167.365C358.245 160.712 358.069 154.06 357.863 147.407C357.69 140.754 357.431 134.102 357.208 127.449L357.057 127.451C357.041 134.106 356.988 140.763 357.022 147.419C357.031 154.075 357.062 160.731 357.116 167.387C357.121 169.048 357.151 170.719 357.186 172.391C357.222 174.019 357.191 175.698 357.175 177.355L357.035 187.332L356.697 207.291L357.493 206.597C356.695 206.669 355.919 206.898 355.21 207.271C354.502 207.645 353.874 208.155 353.365 208.772C352.476 209.824 351.819 211.051 351.438 212.373C351.08 213.608 350.827 214.872 350.681 216.149C350.509 217.362 350.248 218.561 349.902 219.736C349.601 220.896 349.054 221.979 348.3 222.912C347.807 223.48 347.481 224.174 347.358 224.915C347.3 225.285 347.306 225.663 347.374 226.031C347.441 226.387 347.548 226.734 347.695 227.066C347.867 227.474 348.149 227.827 348.509 228.086C348.737 228.237 348.993 228.341 349.262 228.393C349.531 228.444 349.807 228.442 350.075 228.387C350.854 228.187 351.575 227.81 352.182 227.285C353.245 226.43 354.225 225.477 355.111 224.44C355.99 223.439 356.802 222.405 357.616 221.395C358.024 220.895 358.433 220.387 358.861 219.952C358.962 219.849 359.068 219.753 359.178 219.661C359.265 219.583 359.405 219.528 359.326 219.549C359.045 219.523 359.233 219.532 359.256 219.589C359.321 219.652 359.374 219.727 359.412 219.81C359.581 220.336 359.635 220.891 359.571 221.44C359.526 222.045 359.447 222.648 359.333 223.245C359.14 224.454 358.816 225.639 358.367 226.778C357.858 227.912 357.107 228.922 356.168 229.737C355.226 230.612 354.062 231.31 353.07 232.33C352.55 232.835 352.219 233.502 352.133 234.221C352.034 234.916 352.155 235.625 352.48 236.247C352.675 236.593 352.958 236.881 353.301 237.081C353.657 237.278 354.048 237.402 354.453 237.446C355.208 237.509 355.967 237.436 356.697 237.233L356.232 236.901C356.204 237.545 356.25 238.19 356.368 238.823C356.457 239.529 356.79 240.181 357.309 240.667C357.66 240.93 358.098 241.047 358.533 240.995C358.919 240.942 359.292 240.821 359.635 240.638C360.242 240.299 360.806 239.889 361.316 239.416L360.849 239.345C361.194 239.93 361.666 240.43 362.231 240.807C362.867 241.215 363.638 241.354 364.377 241.195C365.06 241.023 365.691 240.688 366.216 240.219C366.451 239.991 366.711 239.779 366.923 239.537L367.55 238.806L367.112 238.783C367.485 239.393 368.052 239.86 368.723 240.11C369.101 240.231 369.508 240.234 369.888 240.118L370.164 240.031L370.403 239.897C370.563 239.818 370.711 239.716 370.841 239.594C371.77 238.694 372.499 237.609 372.979 236.408C374.061 234.18 374.996 231.884 375.78 229.534C376.173 228.365 376.487 227.171 376.723 225.96C376.846 225.343 376.89 224.712 376.854 224.083C376.761 223.44 376.595 222.871 376.457 222.269L374.734 215.144L373.898 211.582L373.704 210.693C373.638 210.424 373.595 210.15 373.575 209.874L373.774 208.095L374.657 200.854C375.277 196.029 375.809 191.196 376.4 186.369L378.122 171.887L378.361 170.085L378.638 168.282C378.801 167.05 378.902 165.834 378.975 164.615C379.123 162.18 379.218 159.747 379.243 157.314C379.289 152.449 379.204 147.587 379.016 142.729C378.795 137.872 378.486 133.018 378.011 128.178L377.862 128.186Z" fill="white"/>
<path d="M364.041 226.943L363.101 229.982L362.631 231.502C362.491 232.006 362.259 232.479 361.947 232.898C361.624 233.327 361.229 233.696 360.778 233.988L359.317 234.875L356.375 236.652L356.815 237.192L359.647 235.28L361.068 234.316C361.538 233.976 361.944 233.556 362.266 233.074C362.571 232.614 362.788 232.101 362.905 231.562L363.284 230.022L364.041 226.943Z" fill="white"/>
<path d="M361.37 239.475L363.796 237.272L365.009 236.17C365.44 235.817 365.82 235.407 366.138 234.95C366.423 234.498 366.645 234.008 366.798 233.496L367.323 232.03L368.373 229.098L367.145 231.975L366.531 233.414C366.356 233.897 366.117 234.355 365.819 234.774C365.492 235.191 365.109 235.56 364.681 235.872L363.403 236.914L360.845 238.998L361.37 239.475Z" fill="white"/>
<path d="M367.64 238.872L368.997 237.068C369.472 236.476 369.914 235.857 370.322 235.216C370.619 234.538 370.853 233.835 371.022 233.114L371.623 231.014L370.842 233.067C370.617 233.757 370.331 234.425 369.988 235.064C369.535 235.659 369.052 236.231 368.54 236.776L367.031 238.483L367.64 238.872Z" fill="white"/>
<path d="M358.039 208.301C357.9 208.313 357.761 208.296 357.629 208.251C357.498 208.207 357.377 208.135 357.274 208.041C357.172 207.947 357.09 207.833 357.034 207.706C356.978 207.579 356.949 207.442 356.949 207.303C356.949 207.164 356.978 207.027 357.034 206.9C357.09 206.773 357.172 206.658 357.274 206.565C357.377 206.471 357.498 206.399 357.629 206.355C357.761 206.31 357.9 206.293 358.039 206.305C358.177 206.293 358.317 206.31 358.448 206.355C358.58 206.399 358.701 206.471 358.803 206.565C358.906 206.658 358.988 206.773 359.044 206.9C359.1 207.027 359.129 207.164 359.129 207.303C359.129 207.442 359.1 207.579 359.044 207.706C358.988 207.833 358.906 207.947 358.803 208.041C358.701 208.135 358.58 208.207 358.448 208.251C358.317 208.296 358.177 208.313 358.039 208.301Z" fill="white"/>
<path d="M361.83 209.899C361.691 209.911 361.552 209.894 361.42 209.849C361.288 209.804 361.168 209.733 361.065 209.639C360.963 209.545 360.881 209.431 360.825 209.304C360.769 209.177 360.74 209.039 360.74 208.901C360.74 208.762 360.769 208.624 360.825 208.497C360.881 208.37 360.963 208.256 361.065 208.162C361.168 208.068 361.288 207.997 361.42 207.952C361.552 207.908 361.691 207.891 361.83 207.903C361.968 207.891 362.108 207.908 362.239 207.952C362.371 207.997 362.492 208.068 362.594 208.162C362.697 208.256 362.779 208.37 362.835 208.497C362.891 208.624 362.92 208.762 362.92 208.901C362.92 209.039 362.891 209.177 362.835 209.304C362.779 209.431 362.697 209.545 362.594 209.639C362.492 209.733 362.371 209.804 362.239 209.849C362.108 209.894 361.968 209.911 361.83 209.899Z" fill="white"/>
<path d="M366.162 211.336C366.024 211.348 365.884 211.331 365.752 211.286C365.621 211.241 365.5 211.17 365.397 211.076C365.295 210.982 365.213 210.868 365.157 210.741C365.101 210.614 365.072 210.476 365.072 210.338C365.072 210.199 365.101 210.061 365.157 209.934C365.213 209.807 365.295 209.693 365.397 209.599C365.5 209.505 365.621 209.434 365.752 209.389C365.884 209.345 366.024 209.328 366.162 209.34C366.301 209.328 366.44 209.345 366.572 209.389C366.703 209.434 366.824 209.505 366.927 209.599C367.029 209.693 367.111 209.807 367.167 209.934C367.223 210.061 367.252 210.199 367.252 210.338C367.252 210.476 367.223 210.614 367.167 210.741C367.111 210.868 367.029 210.982 366.927 211.076C366.824 211.17 366.703 211.241 366.572 211.286C366.44 211.331 366.301 211.348 366.162 211.336Z" fill="white"/>
<path d="M370.314 211.974C370.175 211.986 370.036 211.969 369.904 211.924C369.773 211.88 369.652 211.808 369.549 211.714C369.447 211.62 369.365 211.506 369.309 211.379C369.253 211.252 369.224 211.115 369.224 210.976C369.224 210.837 369.253 210.7 369.309 210.572C369.365 210.445 369.447 210.331 369.549 210.237C369.652 210.144 369.773 210.072 369.904 210.027C370.036 209.983 370.175 209.966 370.314 209.978C370.452 209.966 370.592 209.983 370.723 210.027C370.855 210.072 370.976 210.144 371.078 210.237C371.181 210.331 371.263 210.445 371.319 210.572C371.375 210.7 371.404 210.837 371.404 210.976C371.404 211.115 371.375 211.252 371.319 211.379C371.263 211.506 371.181 211.62 371.078 211.714C370.976 211.808 370.855 211.88 370.723 211.924C370.592 211.969 370.452 211.986 370.314 211.974Z" fill="white"/>
<path d="M373.744 211.814C373.605 211.826 373.466 211.809 373.334 211.765C373.202 211.72 373.081 211.648 372.979 211.555C372.876 211.461 372.795 211.347 372.739 211.219C372.683 211.092 372.654 210.955 372.654 210.816C372.654 210.677 372.683 210.54 372.739 210.413C372.795 210.286 372.876 210.172 372.979 210.078C373.081 209.984 373.202 209.912 373.334 209.868C373.466 209.823 373.605 209.806 373.744 209.818C373.882 209.806 374.022 209.823 374.153 209.868C374.285 209.912 374.406 209.984 374.508 210.078C374.611 210.172 374.693 210.286 374.749 210.413C374.805 210.54 374.834 210.677 374.834 210.816C374.834 210.955 374.805 211.092 374.749 211.219C374.693 211.347 374.611 211.461 374.508 211.555C374.406 211.648 374.285 211.72 374.153 211.765C374.022 211.809 373.882 211.826 373.744 211.814Z" fill="white"/>
<path d="M387.006 338.118C388.178 337.885 389.325 337.542 390.432 337.093C389.346 312.704 385.607 224.655 387.464 213.531C386.451 219.008 385.462 224.485 384.827 230.004C384.063 235.502 383.524 241.029 383.025 246.549C382.044 257.602 381.369 268.676 380.894 279.758L380.114 296.387C379.986 299.154 379.857 301.928 379.688 304.709C379.495 307.497 379.254 310.264 379.029 313.024L377.646 329.618C377.324 333.004 377.018 336.389 376.705 339.775C378.956 339.491 381.224 339.171 383.468 338.794C384.658 338.594 385.832 338.374 387.006 338.118Z" fill="white"/>
<path d="M376.568 341.212C376.415 342.883 376.262 344.548 376.094 346.212C376.094 346.212 384.762 347.649 390.713 343.338C390.713 343.338 390.609 341.055 390.431 337.093C389.413 337.726 388.319 338.227 387.175 338.587C386.033 338.978 384.867 339.32 383.693 339.619C381.417 340.195 379.117 340.664 376.777 341.041C376.711 341.102 376.641 341.159 376.568 341.212Z" fill="white"/>
<path d="M366.194 344.441C366.186 346.127 366.186 347.805 366.162 349.491C369.689 349.216 373.097 348.091 376.094 346.212C376.15 344.619 376.23 343.026 376.303 341.433C374.425 342.751 372.277 343.635 370.014 344.022C368.752 344.246 367.475 344.386 366.194 344.441Z" fill="white"/>
<path d="M345.889 177.015C346.187 178.601 346.517 180.158 346.943 181.68C347.387 183.365 348.024 184.992 348.841 186.531C349.251 187.296 349.748 188.012 350.32 188.665C350.889 189.334 351.553 189.917 352.29 190.394C353.077 190.877 353.927 191.248 354.816 191.496C355.772 191.745 356.749 191.904 357.735 191.973C357.799 186.965 357.863 181.709 357.888 177.833C356.48 177.797 355.073 177.747 353.666 177.669C351.446 177.527 349.227 177.37 347.023 177.143C346.637 177.1 346.267 177.057 345.889 177.015Z" fill="#FF7F00"/>
<path d="M333.867 175.208C338.298 175.528 342.713 175.791 347.128 176.04C350.722 176.218 354.309 176.374 357.895 176.438C357.903 174.461 357.895 172.996 357.863 172.334C357.839 171.886 357.815 170.919 357.783 169.56C345.576 169.276 334.036 168.188 334.036 168.188C334.036 168.188 333.932 170.741 333.867 175.208Z" fill="white"/>
<path d="M379.994 174.938C382.112 174.503 384.145 173.722 386.009 172.626C385.43 170.912 384.77 169.119 384.038 167.228C382.099 168.075 380.04 168.62 377.935 168.842C377.766 169.696 377.436 172.171 377.026 175.521C378.023 175.364 379.013 175.172 379.994 174.938Z" fill="white"/>
<path d="M339.271 254.721C346.308 296.871 348.021 346.212 348.021 346.212C348.021 346.212 356.786 350.359 366.162 349.491C366.05 347.813 365.961 346.134 365.873 344.448C364.715 344.491 363.557 344.484 362.407 344.413C357.431 344.1 352.524 343.094 347.827 341.425C350.256 341.888 352.701 342.265 355.137 342.571C357.571 342.881 360.019 343.069 362.471 343.132C363.581 343.154 364.691 343.132 365.792 343.076C365.672 340.7 365.559 338.317 365.422 335.934L364.859 322.385C364.49 313.344 364.272 304.304 363.975 295.264C363.806 286.223 363.573 277.183 363.468 268.136L363.348 254.572C363.372 250.048 363.331 245.524 363.396 241.001C363.693 245.517 363.886 250.034 364.136 254.558L364.707 268.114C365.069 277.148 365.294 286.188 365.583 295.228C365.744 304.275 365.985 313.316 366.09 322.356L366.21 335.92C366.202 338.303 366.2 340.681 366.202 343.054C367.368 342.988 368.529 342.846 369.676 342.628C371.949 342.276 374.1 341.372 375.941 339.996L376.126 339.853L376.335 339.825C376.349 339.825 376.362 339.823 376.375 339.818C376.536 336.404 376.705 332.99 376.857 329.576L377.798 312.939C378.61 301.893 378.771 290.797 379.286 279.701C379.568 274.153 379.908 268.608 380.307 263.064C380.717 257.524 381.152 251.983 381.795 246.456C382.446 240.93 383.122 235.403 384.047 229.912C384.947 224.414 386.086 218.954 387.464 213.531C389.467 201.589 393.005 193.189 386.009 172.626C384.286 173.969 382.328 174.979 380.235 175.606C379.141 175.955 378.031 176.246 376.906 176.495C375.45 188.374 373.118 209.399 373.118 209.939C373.118 210.658 376.182 222.152 376.544 223.909C376.906 225.666 375.281 231.249 372.483 236.918C369.684 242.587 367.336 238.675 367.336 238.675C363.46 243.625 361.112 239.237 361.112 239.237C356.15 243.625 356.601 236.918 356.601 236.918C353.352 237.715 352.403 236.221 352.54 234.364C352.757 231.349 357.952 231.014 359.399 225.424C360.461 221.32 360.388 219.435 359.399 219.036C358.402 218.638 355.153 224.385 351.366 227.102C349.211 228.639 348.398 227.415 348.101 226.064C348.002 225.554 348.028 225.028 348.176 224.53C348.324 224.032 348.591 223.577 348.953 223.205C349.782 222.287 350.915 220.196 351.543 215.445C352.628 207.3 357.493 207.3 357.493 207.3C357.493 207.3 357.622 199.96 357.735 191.973C356.727 192.199 355.691 192.268 354.663 192.179C353.608 192.073 352.58 191.787 351.623 191.332C349.824 190.402 348.351 188.945 347.401 187.157C346.527 185.516 345.955 183.73 345.713 181.887C345.475 180.264 345.475 178.616 345.713 176.993C341.732 176.573 337.775 175.99 333.867 175.208C333.674 189.348 333.916 222.678 339.271 254.721Z" fill="#FF7F00"/>
<path d="M353.433 348.17C353.593 350.262 353.382 352.366 352.81 354.386C352.272 356.432 351.312 358.344 349.992 360C348.62 361.708 346.924 363.127 345.001 364.178C342.997 365.264 340.843 366.05 338.61 366.511C333.93 367.363 329.364 368.749 325.001 370.643C322.884 371.64 320.735 372.795 319.312 374.623C318.956 375.063 318.704 375.578 318.575 376.129C318.446 376.68 318.442 377.252 318.565 377.805C318.923 378.883 319.56 379.848 320.411 380.602L320.441 380.632L320.48 380.647C322.118 381.233 323.825 381.605 325.559 381.753C327.291 381.937 329.034 381.982 330.772 381.89C334.242 381.714 337.678 381.121 341.005 380.122L345.86 378.542C347.47 378.05 349.09 377.589 350.736 377.203C354.042 376.433 357.397 375.889 360.777 375.575C362.471 375.39 364.177 375.262 365.898 375.114C367.667 375.006 369.424 374.745 371.148 374.333C371.379 374.279 371.604 374.203 371.82 374.107C372.047 374.021 372.269 373.923 372.486 373.813L373.114 373.404C373.299 373.25 373.475 373.083 373.638 372.906C374.225 372.241 374.63 371.435 374.811 370.567C375.13 369.002 375.153 367.391 374.879 365.818C374.37 362.753 373.523 359.755 372.353 356.876C371.805 355.468 371.443 353.995 371.275 352.493C371.192 351.749 371.213 350.998 371.338 350.26C371.439 349.507 371.747 348.797 372.228 348.208L372.125 348.11C371.552 348.683 371.156 349.408 370.984 350.199C370.794 350.955 370.71 351.735 370.735 352.514C370.781 354.071 371.054 355.613 371.547 357.09C372.001 358.562 372.437 360.02 372.789 361.499C373.165 362.958 373.44 364.442 373.611 365.939C373.814 367.386 373.746 368.858 373.411 370.281C373.252 370.943 372.929 371.554 372.471 372.058C372.359 372.176 372.24 372.287 372.115 372.391L371.699 372.654C371.553 372.737 371.368 372.788 371.206 372.86C371.034 372.936 370.855 372.993 370.67 373.031C369.047 373.384 367.399 373.607 365.74 373.697C364.035 373.846 362.308 373.979 360.585 374.17C357.137 374.535 353.719 375.141 350.356 375.984C348.682 376.409 347.03 376.895 345.4 377.441L340.616 379.147C337.413 380.238 334.09 380.943 330.719 381.247C329.023 381.409 327.316 381.418 325.619 381.272C323.938 381.151 322.28 380.814 320.685 380.272L320.753 380.316C319.946 379.628 319.348 378.726 319.029 377.715C318.923 377.22 318.935 376.707 319.063 376.217C319.192 375.728 319.433 375.275 319.769 374.895C320.478 374.055 321.337 373.354 322.302 372.827C323.293 372.257 324.324 371.76 325.387 371.34C327.555 370.484 329.778 369.777 332.042 369.223C334.32 368.626 336.587 368.151 338.94 367.669C339.537 367.553 340.126 367.4 340.705 367.211C341.287 367.046 341.854 366.84 342.418 366.626C342.991 366.433 343.526 366.159 344.08 365.928C344.612 365.655 345.158 365.403 345.665 365.093C347.704 363.954 349.476 362.394 350.863 360.517C352.127 358.744 353.019 356.735 353.486 354.61C353.954 352.485 353.986 350.287 353.581 348.149L353.433 348.17Z" fill="white"/>
<path d="M364.78 361.301C364.607 362.173 364.354 363.027 364.023 363.852C363.843 364.242 363.613 364.607 363.339 364.937C363.019 365.283 362.659 365.59 362.267 365.851C362.807 365.812 363.325 365.62 363.76 365.298C364.171 364.981 364.5 364.571 364.72 364.101C364.914 363.656 365.02 363.177 365.032 362.692C365.054 362.215 364.968 361.74 364.78 361.301Z" fill="white"/>
<path d="M379.881 354.115C379.617 354.841 379.473 355.522 379.194 356.125C379.075 356.424 378.897 356.697 378.672 356.927C378.393 357.17 378.067 357.354 377.715 357.468C377.934 357.534 378.163 357.556 378.39 357.533C378.617 357.51 378.838 357.441 379.038 357.333C379.421 357.114 379.721 356.776 379.893 356.371C380.05 356.011 380.129 355.622 380.125 355.23C380.13 354.845 380.046 354.463 379.881 354.115Z" fill="white"/>
<path d="M352.611 356.254C349.606 356.513 346.631 356.917 343.67 357.385C340.707 357.846 337.765 358.397 334.832 359.017C333.37 359.35 331.911 359.677 330.45 360.096C330.084 360.204 329.722 360.316 329.343 360.458C329.251 360.489 329.154 360.528 329.051 360.575C328.935 360.62 328.823 360.675 328.717 360.739C328.651 360.779 328.584 360.822 328.525 360.864L328.402 360.982C328.32 361.057 328.243 361.138 328.171 361.222C327.676 361.827 327.367 362.562 327.28 363.338C327.186 364.099 327.342 364.87 327.724 365.535C328.141 366.195 328.721 366.737 329.409 367.108C330.786 367.78 332.291 368.149 333.823 368.189C332.41 367.893 331.061 367.347 329.839 366.577C329.316 366.221 328.895 365.735 328.618 365.167C328.385 364.636 328.324 364.046 328.443 363.478C328.565 362.909 328.829 362.379 329.211 361.938C329.255 361.891 329.302 361.847 329.352 361.807L329.422 361.742C329.436 361.739 329.449 361.734 329.463 361.729C329.516 361.703 329.571 361.681 329.627 361.662C329.701 361.632 329.776 361.606 329.852 361.584C330.17 361.48 330.524 361.386 330.874 361.298C332.283 360.933 333.739 360.616 335.191 360.308L343.918 358.395C346.827 357.738 349.73 357.052 352.611 356.254Z" fill="white"/>
<path d="M384.801 345.887C384.577 347.399 384.506 348.93 384.588 350.457C384.631 352.027 384.95 353.577 385.531 355.037C386.187 356.378 386.721 357.776 387.126 359.213C387.254 359.898 387.288 360.599 387.226 361.294C387.144 362.007 386.991 362.71 386.771 363.393L387.073 363.038C386.168 363.545 385.235 364 384.28 364.403C383.314 364.824 382.328 365.217 381.317 365.556C379.275 366.267 377.184 366.83 375.06 367.239C376.168 367.243 377.275 367.171 378.373 367.024C379.474 366.883 380.565 366.678 381.641 366.409C382.713 366.141 383.77 365.817 384.808 365.439C385.85 365.06 386.866 364.617 387.853 364.113L388.077 363.996L388.155 363.757C388.416 362.996 388.601 362.211 388.706 361.414C388.799 360.6 388.757 359.777 388.581 358.977C388.147 357.455 387.53 355.992 386.743 354.62C386.107 353.275 385.664 351.847 385.428 350.379C385.152 348.902 384.964 347.401 384.801 345.887Z" fill="white"/>
<path d="M370.324 103.309C371.534 104.078 372.629 105.014 373.576 106.089C374.082 106.597 374.502 107.181 374.97 107.724C375.388 108.305 375.818 108.879 376.218 109.474C377.788 111.879 379.079 114.454 380.065 117.151C381.073 119.84 381.884 122.599 382.491 125.405L383.265 129.641L383.809 133.912L382.874 133.994L382.451 129.754L381.8 125.543C381.276 122.751 380.549 120 379.624 117.312C378.72 114.613 377.511 112.026 376.02 109.601C375.64 109 375.229 108.419 374.829 107.83C374.38 107.279 373.978 106.686 373.489 106.167C372.574 105.07 371.509 104.108 370.324 103.309Z" fill="white"/>
<path d="M142.462 125.825C142.698 124.212 143.099 122.628 143.66 121.098C144.182 119.565 144.716 118.037 145.278 116.52C146.387 113.48 147.576 110.47 148.79 107.473C151.199 101.47 153.707 95.5086 156.315 89.5901L156.491 89.1905L156.946 89.1805C159.547 89.0442 162.112 88.5112 164.551 87.6C165.797 87.1737 167.022 86.6792 168.235 86.1558C169.439 85.6242 170.655 85.068 171.808 84.476L171.423 85.3037C170.591 81.3709 169.675 77.4408 168.712 73.5309C167.774 69.6135 166.785 65.7069 165.658 61.843C164.669 57.9787 162.611 54.4703 159.719 51.7188C156.814 48.9576 153.397 46.79 149.66 45.3377L150.002 44.9995C150.732 47.357 151.268 49.7701 151.605 52.2148C151.99 54.676 151.94 57.1856 151.459 59.6299C151.188 60.8785 150.651 62.0539 149.883 63.0754C149.072 64.1016 147.968 64.8565 146.717 65.2394C145.48 65.621 144.173 65.7213 142.891 65.533C141.6 65.3184 140.386 64.7731 139.369 63.9503C138.376 63.1466 137.5 62.2087 136.766 61.1635C136.057 60.1262 135.428 59.0368 134.884 57.9045C133.829 55.6509 132.979 53.3077 132.342 50.9029C131.065 46.1208 130.223 41.2333 129.825 36.2999L130.867 37.003C122.967 39.6776 115.458 43.3922 108.54 48.0485C105.117 50.4122 101.867 53.0164 98.8143 55.8414C95.787 58.6955 92.9642 61.7586 90.3669 65.008C85.192 71.5625 80.9351 78.7906 77.7138 86.493C76.0885 90.3473 74.7122 94.3017 73.5935 98.3319C72.4188 102.356 71.5694 106.467 71.0533 110.627L70.8824 110.616C71.614 102.198 73.5593 93.9294 76.658 86.067C79.7247 78.1571 83.8965 70.7203 89.0493 63.9779C91.6597 60.6265 94.5222 57.4789 97.6118 54.5624C100.719 51.6625 104.03 48.9877 107.518 46.5584C114.59 41.8404 122.279 38.1182 130.368 35.4969L131.333 35.1792L131.411 36.2002C131.748 41.0407 132.496 45.8438 133.647 50.5577C134.229 52.8997 135 55.1907 135.953 57.408C136.44 58.4985 137.008 59.5508 137.653 60.556C138.302 61.5364 139.082 62.4226 139.974 63.1894C140.849 63.9435 141.908 64.4538 143.044 64.669C144.191 64.8628 145.367 64.8003 146.487 64.4861C147.604 64.1751 148.6 63.5298 149.339 62.6371C150.074 61.7131 150.589 60.6346 150.847 59.4828C151.332 57.1133 151.4 54.6773 151.046 52.2847C150.752 49.8695 150.232 47.4872 149.492 45.1691L149.318 44.6345L149.835 44.8306C153.672 46.2658 157.19 48.4381 160.19 51.2247C161.715 52.6046 163.045 54.184 164.146 55.92C164.436 56.347 164.694 56.7942 164.919 57.2583C165.175 57.7071 165.404 58.1708 165.604 58.647C165.992 59.6083 166.374 60.5738 166.661 61.5361C167.909 65.3893 169.016 69.2818 170.074 73.1868C171.087 77.1047 172.033 81.0385 172.912 84.9884L173.035 85.5467L172.526 85.8163C171.306 86.4621 170.089 87.0275 168.835 87.5533C167.584 88.0764 166.319 88.5697 165.026 88.9958C162.43 89.9297 159.704 90.4581 156.946 90.5623L157.578 90.1529L153.628 98.9978C152.3 101.942 150.99 104.894 149.697 107.853C148.402 110.812 147.141 113.783 145.881 116.756C145.254 118.243 144.655 119.741 144.068 121.243C143.45 122.723 142.97 124.257 142.634 125.825L142.462 125.825Z" fill="white"/>
<path d="M96.8109 91.9699C97.0154 87.7658 97.4598 83.5768 98.1418 79.4233C98.7688 75.2654 99.6575 71.1512 100.803 67.105C101.379 65.0709 102.062 63.0686 102.849 61.1064C103.628 59.1195 104.607 57.2167 105.771 55.4273C106.366 54.5256 107.031 53.6724 107.761 52.8755C108.127 52.4754 108.553 52.1221 108.945 51.7467C109.381 51.4083 109.837 51.0967 110.311 50.8138C110.792 50.5325 111.305 50.3115 111.84 50.1556C112.102 50.0604 112.373 49.9903 112.648 49.9462L113.481 49.859C114.554 49.8201 115.627 49.8961 116.684 50.0856C118.794 50.4507 120.8 51.268 122.563 52.4814C124.306 53.701 125.839 55.1937 127.105 56.9019C129.569 60.3444 131.499 64.1391 132.829 68.1575C135.579 76.153 136.817 84.5337 137.697 92.8688L137.768 93.5407L137.156 93.788C133.91 95.0683 130.525 95.9636 127.07 96.4557C123.648 96.9887 120.181 97.1708 116.722 96.9992L115.428 96.9514L114.139 96.8273C113.281 96.7298 112.417 96.6949 111.567 96.5416C109.863 96.2833 108.173 95.9397 106.504 95.5122C105.674 95.2836 104.825 95.1359 104.015 94.8411L101.578 94.006C100.751 93.7236 99.9406 93.395 99.1507 93.0216L96.8109 91.9699ZM96.9586 91.883L99.3832 92.688C100.177 92.9478 100.922 93.2385 101.766 93.4284C103.41 93.8504 105.035 94.3203 106.707 94.588C110.02 95.2229 113.384 95.5492 116.757 95.5625C117.598 95.5485 118.439 95.5873 119.279 95.5308L121.795 95.3795C123.466 95.2013 125.133 95.0095 126.788 94.7272C128.442 94.4461 130.08 94.0818 131.698 93.6544C133.302 93.2394 134.88 92.7268 136.421 92.1195L135.88 93.0384C135.134 84.7604 134.028 76.4794 131.705 68.5198C130.629 64.5174 128.908 60.7171 126.607 57.2687C125.408 55.5902 123.944 54.1168 122.272 52.9058C120.572 51.7457 118.625 50.9967 116.585 50.7181C115.576 50.5689 114.552 50.5448 113.537 50.6462L112.815 50.7629C112.576 50.8146 112.343 50.8899 112.12 50.9876C111.658 51.1503 111.219 51.3696 110.812 51.6405C109.175 52.8136 107.832 54.3473 106.885 56.1227C104.925 59.7439 103.367 63.5684 102.24 67.5279C101.651 69.5142 101.114 71.5192 100.607 73.535C100.118 75.5547 99.6554 77.5832 99.2185 79.6206C98.3686 83.6765 97.6411 87.8587 96.9586 91.883Z" fill="white"/>
<path d="M155.301 65.6289C156.225 69.597 156.909 73.6169 157.351 77.667C157.584 79.695 157.729 81.735 157.818 83.7818C157.912 85.8292 157.884 87.8851 157.8 89.9464L156.092 89.7968C156.314 87.8082 156.484 85.8037 156.532 83.7884C156.586 81.7742 156.585 79.7521 156.496 77.7307C156.34 73.6765 155.941 69.6353 155.301 65.6289Z" fill="white"/>
<path d="M103.513 349.737C98.1394 349.891 94.42 349.968 94.42 349.968L91.9518 209.032C93.0231 206.13 93.9655 203.186 94.8912 200.241C95.7913 197.296 96.6541 194.337 97.4795 191.364C98.3022 188.402 99.0822 185.415 99.8363 182.427C100.377 180.261 100.89 178.078 101.388 175.896C101.311 182.384 101.302 188.864 101.25 195.344L101.276 217.404C101.311 232.111 101.499 246.817 101.602 261.515C101.85 276.222 102.013 290.928 102.33 305.626L102.828 327.686C103.059 335.031 103.23 342.384 103.513 349.737Z" fill="white"/>
<path d="M49.5111 175.579C47.0613 182.495 45.004 189.542 43.3488 196.689C50.6765 131.494 70.9713 110.624 70.9713 110.624C73.342 112.997 76.037 115.023 78.9761 116.642C74.8537 122.703 71.0742 129.003 67.5517 135.449C64.0208 141.878 60.7725 148.469 57.73 155.146C56.213 158.493 54.799 161.883 53.3933 165.273C52.6907 166.968 52.0734 168.697 51.4051 170.409C50.7452 172.121 50.0852 173.833 49.5111 175.579Z" fill="white"/>
<path d="M142.509 151.003L142.14 347.093C137.812 348.531 116.112 349.37 103.513 349.738C103.616 342.385 103.607 335.032 103.668 327.678L103.642 305.618C103.607 290.912 103.419 276.205 103.316 261.499C103.076 246.792 102.905 232.094 102.596 217.388L102.091 195.337C101.885 188.72 101.713 182.094 101.482 175.477C101.619 174.86 101.765 174.244 101.902 173.628C104.233 172.19 106.547 170.726 108.818 169.176C106.221 170.315 103.668 171.539 101.139 172.797L100.951 172.892L100.873 173.14C99.948 176.085 99.091 179.046 98.2507 182.008C97.4368 184.979 96.6312 187.958 95.8771 190.945C95.1226 193.933 94.4112 196.932 93.7429 199.942C93.0829 202.955 92.4489 205.977 91.9518 209.033C89.0718 218.484 70.9712 349.969 70.9712 349.969L18.7261 347.093C18.7261 347.093 36.0039 267.791 42.9975 199.993C43.1088 198.881 43.2289 197.785 43.3488 196.698V196.689C43.9573 194.96 44.5402 193.231 45.1144 191.493L45.98 188.891L46.9312 186.314L48.7911 181.161L50.7707 176.042C53.4448 169.245 56.2474 162.491 59.2899 155.857C62.2895 149.188 65.4377 142.591 68.7345 136.065C70.3971 132.804 72.0511 129.542 73.7652 126.315C75.445 123.062 77.2105 119.852 78.9761 116.642C87.2209 121.307 97.7025 123.816 107.773 125.1C109.243 129.448 111.818 133.342 115.246 136.399C115.006 138.231 114.698 140.02 114.346 141.801C113.918 143.881 113.472 145.952 112.889 147.99C112.606 149.008 112.324 150.036 111.989 151.037L111.518 152.561L111.004 154.068C110.327 156.088 109.53 158.065 108.818 160.137C110.158 158.413 111.305 156.547 112.238 154.573C114.15 150.623 115.313 146.353 115.666 141.98C115.822 140.219 115.793 138.446 115.58 136.69C116.961 137.886 118.463 138.933 120.063 139.815C126.816 143.547 135.789 147.956 142.509 151.003Z" fill="#FF7F00"/>
<path d="M115.58 136.69C115.469 136.596 115.357 136.501 115.246 136.399C115.297 136.09 115.332 135.774 115.375 135.457C115.46 135.868 115.529 136.279 115.58 136.69Z" fill="white"/>
<path d="M176.744 14.6787C176.722 17.1192 176.407 19.5482 175.805 21.9133C175.235 24.3513 174.199 26.6565 172.755 28.7026L172.884 28.0193C173.765 30.5776 174.419 33.2086 174.838 35.8818C174.888 36.2605 174.902 36.643 174.88 37.0244C174.867 37.3038 174.799 37.5779 174.679 37.831C174.626 37.9392 174.557 38.0391 174.475 38.1272C174.36 38.249 174.22 38.3442 174.065 38.4059C173.98 38.4358 173.893 38.4576 173.804 38.4713L173.673 38.4853L173.637 38.487L173.543 38.4903C172.968 38.5332 172.403 38.6613 171.866 38.8703C171.299 39.0728 170.756 39.3341 170.244 39.6499L170.077 39.7618L170.004 39.8143C170.008 39.8158 170.013 39.8164 170.017 39.816C170.022 39.8157 170.027 39.8144 170.031 39.8122C170.034 39.8104 170.036 39.8076 170.038 39.8044C170.039 39.8011 170.039 39.7975 170.038 39.7941C170.031 39.802 170.009 39.8495 169.994 39.8752L169.897 40.0601L169.474 40.9423C168.385 43.5202 166.531 45.7025 164.161 47.1951C161.742 48.5053 158.951 48.9593 156.241 48.4835C158.851 48.4799 161.404 47.7247 163.594 46.3084C164.606 45.5596 165.496 44.6584 166.231 43.637C166.957 42.5931 167.568 41.4732 168.052 40.2972L168.45 39.3689L168.574 39.1088C168.599 39.0613 168.608 39.0312 168.645 38.9697C168.693 38.8957 168.745 38.8226 168.801 38.7521C168.857 38.6816 168.916 38.614 168.976 38.5506L169.101 38.4518C169.183 38.3855 169.261 38.3348 169.341 38.2796C169.952 37.8872 170.603 37.5612 171.284 37.3072C171.982 37.0269 172.719 36.8548 173.47 36.7966L173.624 36.79C173.632 36.7893 173.662 36.7896 173.651 36.788C173.627 36.786 173.604 36.7861 173.58 36.7882C173.532 36.7925 173.485 36.8052 173.441 36.8257C173.361 36.8558 173.29 36.9035 173.232 36.9653C173.181 37.0328 173.18 37.0175 173.162 37.0554C173.136 37.118 173.173 37.0091 173.174 36.8988C173.185 36.618 173.175 36.3367 173.144 36.0574C172.983 34.781 172.743 33.5159 172.425 32.2695C172.119 30.9988 171.804 29.7145 171.451 28.4574L171.343 28.0733L171.58 27.7737C172.295 26.8669 172.925 25.8968 173.463 24.8755C173.988 23.8177 174.457 22.7329 174.867 21.6258C175.664 19.3597 176.292 17.0376 176.744 14.6787Z" fill="white"/>
<path d="M130.618 36.2499C132.098 35.3861 133.551 34.4979 135.002 33.614C136.447 32.7226 137.87 31.8013 139.248 30.8259C140.639 29.875 141.96 28.8273 143.203 27.6907C144.483 26.5855 145.551 25.2566 146.353 23.769C145.835 25.4308 144.916 26.9397 143.677 28.1628C142.488 29.4193 141.169 30.5464 139.742 31.5252C136.925 33.5002 133.857 35.0892 130.618 36.2499Z" fill="white"/>
<path d="M146.353 23.7694C146.353 23.7694 144.502 25.4644 146.353 20.6877C148.205 15.9111 155.147 14.6784 155.301 18.0683C155.455 21.4581 157.923 22.7726 162.551 21.1909C167.179 19.6091 177.515 15.6029 177.515 13.908C177.515 12.2131 172.887 3.58432 160.546 0.502625C148.205 -2.57907 137.714 9.13137 136.789 18.6846C135.863 28.2379 137.92 32.2402 137.92 32.2402C137.92 32.2402 144.024 29.1104 146.353 23.7694Z" fill="white"/>
<path d="M146.353 28.5459C146.211 30.1686 146.025 31.7193 145.969 33.277C145.938 34.0543 145.956 34.826 145.998 35.6025C146.069 36.3898 146.187 37.1721 146.353 37.9451C145.866 37.2747 145.521 36.5128 145.337 35.7054C145.162 34.8978 145.087 34.0719 145.113 33.2461C145.15 32.4279 145.27 31.6156 145.471 30.8214C145.661 30.0266 145.957 29.2611 146.353 28.5459Z" fill="white"/>
<path d="M164.403 23.769C165.802 23.8524 167.172 24.2038 168.439 24.804C169.082 25.0988 169.688 25.4701 170.242 25.9099C170.835 26.3305 171.275 26.9306 171.499 27.6212C171.02 27.1502 170.469 26.759 169.867 26.4625C169.281 26.1548 168.69 25.8525 168.077 25.5792C166.863 25.004 165.622 24.4732 164.403 23.769Z" fill="white"/>
<path d="M168.105 30.1384C168.438 30.1269 168.754 29.9865 168.986 29.747C169.217 29.5074 169.347 29.1874 169.347 28.8544C169.347 28.5213 169.217 28.2013 168.986 27.9617C168.754 27.7222 168.438 27.5818 168.105 27.5703C167.772 27.5818 167.456 27.7222 167.224 27.9617C166.993 28.2013 166.863 28.5213 166.863 28.8544C166.863 29.1874 166.993 29.5074 167.224 29.747C167.456 29.9865 167.772 30.1269 168.105 30.1384Z" fill="white"/>
<path d="M164.403 37.9453C165.178 38.4542 165.873 39.0748 166.467 39.7869C166.759 40.1321 167.043 40.483 167.306 40.8501C167.582 41.2124 167.806 41.5924 168.105 41.9715C167.631 41.8616 167.191 41.6359 166.826 41.3147C166.461 41.0236 166.124 40.6997 165.819 40.347C165.194 39.6472 164.712 38.8311 164.403 37.9453Z" fill="white"/>
<path d="M193.21 174.204L193.471 183.556C193.556 186.673 193.62 189.79 193.663 192.907L193.812 202.259C193.873 205.376 193.885 208.493 193.905 211.61L193.109 210.815L212.166 210.7C218.518 210.705 224.871 210.736 231.223 210.862L250.28 211.182C256.633 211.271 262.985 211.321 269.337 211.292L269.019 211.61C268.986 205.266 268.974 198.922 268.863 192.578L268.576 173.546L268.398 154.514L268.285 135.482L269.337 136.533C262.985 136.577 256.633 136.566 250.28 136.558C243.928 136.522 237.575 136.513 231.223 136.429L212.166 136.218L193.109 135.868L193.496 135.482L193.21 146.637C193.209 146.663 193.198 146.688 193.18 146.706C193.161 146.725 193.135 146.735 193.109 146.735C193.082 146.735 193.057 146.725 193.038 146.706C193.019 146.688 193.008 146.663 193.007 146.637L192.722 135.482C192.719 135.382 192.757 135.285 192.826 135.213C192.894 135.141 192.989 135.098 193.089 135.096L193.092 135.096L193.109 135.095L212.166 134.746L231.223 134.534C237.575 134.45 243.928 134.442 250.28 134.406C256.633 134.398 262.985 134.387 269.337 134.43H269.351C269.488 134.431 269.624 134.459 269.751 134.512C269.877 134.566 269.992 134.643 270.089 134.741C270.185 134.839 270.261 134.954 270.313 135.081C270.365 135.209 270.391 135.345 270.39 135.482L270.277 154.514L270.099 173.546L269.812 192.578C269.701 198.922 269.689 205.266 269.656 211.61C269.655 211.694 269.622 211.775 269.562 211.834C269.503 211.894 269.422 211.928 269.337 211.928C262.985 211.899 256.633 211.949 250.28 212.038L231.223 212.358C224.871 212.484 218.518 212.515 212.166 212.52L193.109 212.405H193.099C192.995 212.405 192.892 212.384 192.796 212.343C192.701 212.303 192.614 212.244 192.541 212.17C192.468 212.097 192.41 212.009 192.371 211.913C192.332 211.817 192.312 211.714 192.313 211.61C192.333 208.493 192.344 205.376 192.406 202.258L192.555 192.907C192.595 189.79 192.659 186.673 192.747 183.556L193.007 174.204C193.008 174.178 193.019 174.153 193.038 174.135C193.057 174.116 193.082 174.106 193.109 174.106C193.135 174.106 193.161 174.116 193.179 174.135C193.198 174.153 193.209 174.178 193.21 174.204Z" fill="white"/>
<path d="M231.228 135.481V211.61" stroke="white" stroke-width="4.63075" stroke-miterlimit="10"/>
<path d="M269.342 173.545H212.308" stroke="white" stroke-width="4.63075" stroke-miterlimit="10"/>
<path d="M232.176 135.761C232.124 135.798 232.063 135.821 232 135.827L231.912 135.837L231.767 135.857L231.478 135.895L230.9 135.962C230.515 135.994 230.129 136.032 229.743 136.052C228.972 136.09 228.198 136.122 227.426 136.11C225.878 136.107 224.332 136.014 222.795 135.833C221.246 135.661 219.71 135.39 218.196 135.022C216.654 134.673 215.155 134.157 213.726 133.483C212.266 132.796 210.911 131.907 209.699 130.844C208.45 129.784 207.469 128.445 206.834 126.936C206.252 125.408 206.159 123.739 206.565 122.157C206.892 120.589 207.457 119.081 208.24 117.684C209.075 116.188 210.307 114.952 211.8 114.111C213.386 113.273 215.196 112.956 216.973 113.206C218.694 113.448 220.342 114.062 221.8 115.007C223.201 115.903 224.459 117.006 225.53 118.278C227.556 120.749 229.131 123.558 230.181 126.575C230.711 128.039 231.148 129.536 231.49 131.055C231.651 131.819 231.787 132.563 231.929 133.345C232.075 134.24 232.101 135.09 232.176 135.761ZM231.945 135.577C231.617 134.782 231.241 134.167 230.986 133.596C230.681 132.925 230.351 132.223 230.058 131.536L229.084 129.505C228.734 128.844 228.409 128.173 228.055 127.523C226.714 124.948 225.07 122.543 223.157 120.358C221.281 118.29 219.068 116.483 216.54 115.963C215.247 115.72 213.913 115.839 212.683 116.305C211.453 116.771 210.376 117.567 209.57 118.606C208.637 119.722 207.945 121.018 207.536 122.413C207.06 123.768 207.123 125.254 207.712 126.564C208.376 127.827 209.405 128.861 210.666 129.531C211.935 130.222 213.271 130.783 214.653 131.207C216.031 131.668 217.44 132.068 218.855 132.492C220.277 132.892 221.726 133.235 223.183 133.578L227.593 134.547L229.822 135.021L230.941 135.267L231.503 135.395L231.784 135.459L231.925 135.491C231.941 135.496 231.988 135.501 231.979 135.507C231.966 135.513 231.956 135.524 231.95 135.536C231.944 135.549 231.943 135.563 231.945 135.577Z" fill="#FF7F00"/>
<path d="M230.527 135.578C230.529 135.564 230.528 135.55 230.521 135.537C230.515 135.524 230.505 135.514 230.493 135.508C230.484 135.502 230.531 135.497 230.547 135.492L230.688 135.46L230.969 135.396L231.531 135.268L232.65 135.022L234.879 134.548L239.289 133.579C240.746 133.236 242.195 132.893 243.617 132.493C245.032 132.069 246.44 131.669 247.819 131.208C249.201 130.784 250.537 130.223 251.806 129.532C253.067 128.862 254.096 127.828 254.76 126.565C255.349 125.255 255.412 123.769 254.936 122.414C254.527 121.019 253.835 119.723 252.902 118.607C252.096 117.568 251.019 116.772 249.789 116.306C248.559 115.84 247.225 115.721 245.932 115.964C243.404 116.484 241.191 118.291 239.315 120.359C237.402 122.544 235.758 124.949 234.417 127.524C234.063 128.174 233.738 128.845 233.388 129.506L232.414 131.537C232.121 132.224 231.791 132.926 231.486 133.597C231.23 134.168 230.855 134.783 230.527 135.578ZM230.296 135.762C230.37 135.091 230.397 134.241 230.543 133.346C230.685 132.564 230.82 131.82 230.982 131.056C231.324 129.537 231.761 128.041 232.291 126.576C233.341 123.559 234.916 120.75 236.942 118.279C238.013 117.007 239.271 115.904 240.672 115.008C242.13 114.063 243.778 113.449 245.499 113.207C247.276 112.957 249.086 113.274 250.672 114.112C252.165 114.953 253.397 116.189 254.231 117.685C255.015 119.082 255.58 120.59 255.906 122.157C256.313 123.74 256.219 125.41 255.638 126.936C255.003 128.446 254.021 129.785 252.772 130.845C251.561 131.908 250.205 132.797 248.746 133.484C247.317 134.158 245.818 134.674 244.276 135.023C242.762 135.391 241.226 135.662 239.677 135.834C238.14 136.015 236.593 136.107 235.046 136.111C234.274 136.123 233.5 136.091 232.729 136.053C232.343 136.033 231.957 135.995 231.572 135.963L230.993 135.896L230.705 135.858L230.56 135.838L230.472 135.828C230.409 135.822 230.348 135.799 230.296 135.762Z" fill="#FF7F00"/>
<path d="M240.816 134.392L247.11 132.599C249.193 132.006 251.243 131.355 253.321 130.773C255.436 130.281 257.506 129.616 259.512 128.784C261.489 127.876 263.332 126.703 264.991 125.296C266.75 123.841 268.775 122.742 270.954 122.059C273.15 121.339 275.463 121.043 277.77 121.186C280.084 121.341 282.339 121.986 284.384 123.077C285.408 123.627 286.34 124.332 287.147 125.168C287.975 125.993 288.522 127.057 288.71 128.209L288.513 128.259C288.048 127.318 287.339 126.519 286.46 125.945C285.603 125.364 284.679 124.887 283.709 124.524C281.764 123.809 279.716 123.411 277.644 123.343C275.572 123.235 273.496 123.423 271.477 123.901C269.432 124.417 267.462 125.195 265.616 126.213C263.686 127.278 261.763 128.383 259.802 129.374C257.875 130.471 255.894 131.471 253.866 132.369C251.798 133.174 249.651 133.764 247.461 134.13C245.277 134.536 243.054 134.691 240.835 134.593L240.816 134.392Z" fill="#FF7F00"/>
<path d="M242.445 135.362L247.78 131.575C249.545 130.322 251.261 129.025 253.025 127.784C254.855 126.616 256.585 125.299 258.197 123.847C259.758 122.332 261.104 120.612 262.198 118.733C263.37 116.775 264.912 115.064 266.739 113.694C268.568 112.284 270.65 111.234 272.873 110.601C275.106 109.976 277.446 109.832 279.739 110.18C280.888 110.357 282.003 110.712 283.042 111.231C284.098 111.732 284.969 112.553 285.531 113.577L285.362 113.689C284.61 112.957 283.675 112.44 282.654 112.192C281.652 111.93 280.622 111.787 279.586 111.769C277.513 111.743 275.45 112.05 273.474 112.677C271.485 113.264 269.59 114.133 267.847 115.257C266.091 116.425 264.494 117.814 263.094 119.389C261.629 121.036 260.186 122.718 258.668 124.306C257.218 125.983 255.684 127.585 254.073 129.107C252.391 130.555 250.565 131.827 248.623 132.901C246.699 134.011 244.655 134.899 242.53 135.546L242.445 135.362Z" fill="#FF7F00"/>
<path d="M102.231 95.8282C102.933 100.63 103.715 105.421 104.687 110.168C105.181 112.539 105.646 114.917 106.266 117.254C106.913 119.577 107.511 121.937 108.195 124.225C109.673 128.736 112.336 132.768 115.906 135.901C116.792 136.676 117.732 137.387 118.72 138.028C119.694 138.683 120.744 139.222 121.817 139.807C123.952 140.947 126.103 142.06 128.272 143.145C132.614 145.299 136.945 147.486 141.343 149.523C143.537 150.553 145.752 151.539 147.959 152.515C149.06 152.99 150.183 153.476 151.272 153.841L152.124 154.103C152.425 154.203 152.748 154.288 153.031 154.402C153.606 154.625 154.195 154.831 154.756 155.069C159.287 156.927 163.681 158.996 168.091 161.053L181.28 167.286C181.304 167.298 181.327 167.312 181.348 167.328C182.965 168.577 184.676 169.7 186.465 170.688C188.254 171.689 190.123 172.544 192 173.376C193.881 174.2 195.797 174.945 197.726 175.654C199.657 176.353 201.605 177.029 203.569 177.599L203.473 177.583C203.777 177.589 204.081 177.57 204.382 177.527C204.65 177.475 204.912 177.364 204.932 177.269C204.949 177.175 204.946 177.079 204.924 176.986C204.902 176.893 204.862 176.805 204.804 176.729C204.659 176.478 204.482 176.248 204.277 176.044C204.195 175.96 204.149 175.847 204.15 175.73C204.151 175.613 204.199 175.501 204.282 175.418C204.333 175.37 204.395 175.333 204.462 175.312C204.529 175.291 204.6 175.287 204.67 175.298L208.467 175.954L208.377 175.946L209.011 175.897C209.209 175.861 209.405 175.813 209.597 175.751C209.95 175.643 210.262 175.429 210.49 175.138C210.709 174.838 210.841 174.483 210.87 174.112C210.909 173.717 210.881 173.318 210.787 172.932C210.754 172.805 210.767 172.67 210.823 172.552C210.879 172.433 210.975 172.337 211.094 172.281L211.125 172.267C211.518 172.114 211.876 171.884 212.178 171.59C212.447 171.331 212.61 170.981 212.635 170.609C212.654 170.199 212.583 169.79 212.427 169.41C212.269 169.001 212.058 168.615 211.799 168.262C211.7 168.13 211.656 167.965 211.674 167.802C211.693 167.638 211.773 167.488 211.899 167.381L211.92 167.364C212.415 166.986 212.836 166.519 213.161 165.988C213.288 165.794 213.354 165.567 213.349 165.335C213.344 165.103 213.268 164.878 213.133 164.69C212.785 164.273 212.3 163.993 211.765 163.9C211.629 163.872 211.492 163.854 211.354 163.845L210.887 163.859C210.497 163.873 210.106 163.862 209.717 163.823C208.262 163.667 206.816 163.426 205.389 163.101L204.329 162.862L204.063 162.799L203.89 162.754L203.757 162.713L203.236 162.549C202.544 162.327 201.857 162.092 201.175 161.844C199.791 161.353 198.44 160.775 197.128 160.115C196.432 159.766 195.773 159.347 195.162 158.864C194.789 158.573 194.475 158.214 194.236 157.807C194.167 157.672 194.108 157.533 194.058 157.389C194.017 157.23 193.991 157.068 193.982 156.903C193.967 156.646 193.986 156.387 194.039 156.134C194.064 155.977 194.114 155.826 194.188 155.686C194.255 155.522 194.353 155.373 194.477 155.247C194.586 155.112 194.719 154.999 194.87 154.913C194.994 154.827 195.13 154.759 195.274 154.711C195.703 154.562 196.151 154.478 196.605 154.463C197.386 154.42 198.097 154.436 198.808 154.432C200.201 154.444 201.595 154.382 202.982 154.246C203.613 154.184 204.234 154.046 204.832 153.834C205.329 153.66 205.768 153.351 206.099 152.942C206.368 152.522 206.488 152.023 206.439 151.527C206.418 151.219 206.376 150.914 206.312 150.613L206.286 150.486C206.28 150.45 206.26 150.366 206.276 150.453C206.29 150.506 206.315 150.556 206.35 150.599C206.295 150.557 206.237 150.519 206.176 150.485C205.611 150.215 205.017 150.009 204.406 149.871C203.746 149.701 203.061 149.56 202.373 149.427C200.992 149.162 199.587 148.943 198.172 148.714C196.762 148.495 195.296 148.22 193.902 147.911C192.648 147.551 191.349 147.37 190.044 147.376C189.924 147.393 189.805 147.419 189.689 147.454C189.634 147.469 189.579 147.488 189.527 147.512L189.27 147.609C188.864 147.756 188.445 147.863 188.018 147.929C187.25 148.059 186.517 148.126 185.783 148.184C184.315 148.292 182.879 148.334 181.415 148.345L181.366 148.345C181.322 148.346 181.278 148.34 181.235 148.33L178.687 147.706C177.855 147.465 177.071 147.136 176.262 146.854C175.461 146.569 174.676 146.243 173.909 145.878C173.142 145.524 172.353 145.207 171.606 144.821C170.113 144.049 168.593 143.318 167.146 142.476L164.952 141.248L162.805 139.951C157.091 136.474 151.593 132.695 146.2 128.782C143.499 126.831 140.839 124.824 138.22 122.763C138.059 122.635 137.882 122.502 137.715 122.357L137.213 121.856C136.915 121.519 136.644 121.159 136.403 120.78C135.935 120.048 135.536 119.274 135.21 118.469C134.582 116.897 134.08 115.279 133.706 113.628C132.973 110.367 132.467 107.059 132.191 103.728C131.887 100.41 131.709 97.0882 131.656 93.7615C131.656 93.7482 131.659 93.735 131.664 93.7226C131.669 93.7102 131.676 93.6989 131.685 93.6894C131.694 93.6799 131.706 93.6722 131.718 93.667C131.73 93.6617 131.743 93.6589 131.756 93.6587C131.783 93.6589 131.808 93.669 131.827 93.687C131.846 93.7051 131.858 93.7296 131.859 93.7558C132.202 100.369 133.16 106.937 134.72 113.373C135.129 114.952 135.661 116.496 136.311 117.992C136.631 118.718 137.017 119.413 137.464 120.068C137.678 120.383 137.916 120.681 138.176 120.959L138.566 121.329C138.716 121.451 138.876 121.562 139.044 121.688C141.714 123.649 144.419 125.571 147.134 127.473C152.574 131.264 158.114 134.916 163.824 138.243L165.966 139.488L168.134 140.677C169.568 141.495 171.054 142.191 172.519 142.934C175.403 144.379 178.45 145.472 181.595 146.191L181.415 146.175C182.81 146.167 184.236 146.127 185.622 146.026C186.313 145.973 187.006 145.908 187.649 145.799C187.93 145.757 188.206 145.691 188.475 145.6L188.551 145.576L188.719 145.508C188.831 145.461 188.945 145.42 189.062 145.387C189.289 145.32 189.52 145.269 189.754 145.236C190.577 145.156 191.406 145.199 192.216 145.365C192.963 145.495 193.667 145.656 194.366 145.808C195.763 146.131 197.106 146.399 198.521 146.634C199.927 146.877 201.346 147.114 202.773 147.403C203.487 147.549 204.202 147.704 204.926 147.898C205.709 148.085 206.466 148.366 207.181 148.735C207.434 148.875 207.662 149.054 207.858 149.266C208.015 149.44 208.131 149.646 208.201 149.87C208.226 149.943 208.245 150.019 208.257 150.095L208.284 150.231C208.363 150.63 208.413 151.034 208.435 151.44C208.495 152.38 208.237 153.313 207.703 154.09C207.144 154.809 206.388 155.353 205.528 155.655C204.775 155.918 203.993 156.087 203.199 156.159C201.737 156.289 200.269 156.34 198.802 156.312C198.083 156.308 197.362 156.287 196.714 156.317C196.452 156.321 196.192 156.36 195.94 156.433C195.789 156.518 195.886 156.414 195.832 156.533C195.456 156.967 196.819 157.96 197.959 158.559C199.191 159.208 200.463 159.778 201.767 160.268C202.424 160.521 203.087 160.762 203.753 160.99L204.252 161.157L204.375 161.197L204.461 161.22L204.716 161.286L205.744 161.538C207.101 161.873 208.475 162.13 209.862 162.307C210.185 162.345 210.509 162.363 210.834 162.362L211.439 162.366C211.658 162.384 211.875 162.418 212.088 162.469C212.97 162.656 213.752 163.16 214.287 163.885C214.578 164.293 214.73 164.783 214.722 165.285C214.713 165.756 214.583 166.218 214.347 166.627C213.918 167.313 213.359 167.909 212.703 168.383L212.824 167.485C213.149 167.948 213.409 168.453 213.596 168.987C213.803 169.545 213.883 170.142 213.83 170.735C213.762 171.371 213.469 171.962 213.004 172.401C212.579 172.801 212.076 173.109 211.526 173.307L211.864 172.642C211.984 173.167 212.011 173.708 211.943 174.242C211.879 174.805 211.661 175.339 211.312 175.785C210.95 176.226 210.465 176.548 209.918 176.71C209.664 176.786 209.405 176.844 209.142 176.882L208.377 176.922C208.353 176.923 208.328 176.921 208.304 176.917L208.288 176.914L204.509 176.165L204.901 175.42C205.161 175.69 205.383 175.994 205.561 176.324C205.687 176.523 205.763 176.75 205.78 176.986C205.798 177.221 205.757 177.457 205.661 177.672C205.531 177.859 205.361 178.014 205.164 178.126C204.966 178.239 204.746 178.306 204.519 178.323C204.162 178.368 203.802 178.382 203.443 178.366C203.41 178.365 203.378 178.36 203.347 178.35C199.399 177.106 195.522 175.646 191.735 173.976C189.848 173.128 187.984 172.226 186.166 171.229C184.332 170.246 182.577 169.123 180.916 167.871L180.984 167.913C176.573 165.877 172.158 163.847 167.694 161.93C163.235 160.013 158.767 158.077 154.25 156.377C153.686 156.157 153.121 155.98 152.557 155.779C152.273 155.674 152.003 155.616 151.726 155.531L150.827 155.284C149.6 154.911 148.477 154.459 147.333 154.007C145.058 153.101 142.844 152.085 140.622 151.085C136.195 149.049 131.78 146.99 127.461 144.733C125.297 143.614 123.145 142.469 121.005 141.299C119.953 140.709 118.842 140.123 117.805 139.409C116.762 138.715 115.77 137.947 114.837 137.111C111.077 133.774 108.332 129.449 106.913 124.628C106.274 122.247 105.746 119.88 105.159 117.507C104.61 115.132 104.182 112.732 103.793 110.33C103.048 105.519 102.417 100.697 102.029 95.8494C102.027 95.8227 102.035 95.7961 102.053 95.7757C102.07 95.7552 102.095 95.7425 102.122 95.7403C102.148 95.7387 102.173 95.7467 102.194 95.763C102.214 95.7793 102.227 95.8025 102.231 95.8282Z" fill="white"/>
<path d="M168.921 85.7974C170.91 90.1448 173.018 94.4025 175.184 98.6292C176.277 100.736 177.366 102.844 178.508 104.924L180.203 108.051L181.955 111.147C183.121 113.212 184.302 115.27 185.527 117.301L187.346 120.361L189.214 123.393C191.687 127.452 194.309 131.416 196.837 135.482C193.627 131.93 190.64 128.184 187.893 124.265C185.124 120.356 182.554 116.311 180.191 112.145C177.829 107.977 175.683 103.691 173.759 99.3042C171.794 94.9358 170.176 90.4195 168.921 85.7974Z" fill="white"/>
<path d="M150.927 100.975C153.696 104.477 156.351 108.047 158.99 111.624C161.637 115.197 164.232 118.8 166.843 122.39C169.457 125.976 172.063 129.565 174.73 133.098C176.069 134.862 177.408 136.622 178.816 138.319C179.51 139.177 180.228 140.009 180.972 140.815C181.687 141.625 182.486 142.357 183.356 142.999L183.396 143.026C183.438 143.054 183.471 143.094 183.49 143.142C184.032 144.47 184.564 145.802 185.074 147.145C184.332 145.915 183.611 144.674 182.9 143.428L183.034 143.57C181.096 142.373 179.338 140.906 177.813 139.214C176.262 137.589 174.768 135.918 173.349 134.192C170.495 130.749 167.807 127.186 165.22 123.556C162.632 119.926 160.141 116.233 157.747 112.475C155.36 108.714 153.044 104.906 150.927 100.975Z" fill="white"/>
<path d="M195.739 164.229C198.523 164.928 201.234 165.703 203.975 166.363C205.344 166.696 206.719 166.988 208.101 167.261C209.488 167.508 210.877 167.713 212.308 167.876C210.884 168.114 209.435 168.171 207.997 168.045C206.562 167.915 205.138 167.682 203.737 167.347C202.343 167.002 200.971 166.573 199.629 166.062C198.282 165.562 196.981 164.949 195.739 164.229Z" fill="white"/>
<path d="M194.277 167.894C197.08 168.982 199.838 170.032 202.662 170.891C204.067 171.342 205.496 171.69 206.932 172.028C208.374 172.351 209.83 172.568 211.325 172.783C209.824 172.987 208.303 172.995 206.801 172.808C205.297 172.622 203.813 172.304 202.365 171.86C200.922 171.411 199.515 170.858 198.153 170.205C196.788 169.564 195.489 168.79 194.277 167.894Z" fill="white"/>
<path d="M193.118 170.341C195.092 171.114 197.025 171.988 198.909 172.961L201.719 174.38C202.66 174.846 203.589 175.321 204.585 175.73C203.502 175.696 202.432 175.487 201.416 175.111C200.401 174.766 199.412 174.35 198.455 173.866C197.502 173.386 196.575 172.855 195.68 172.274C194.775 171.7 193.918 171.054 193.118 170.341Z" fill="white"/>
<path d="M29.4721 347.755C28.9278 348.87 28.252 350.087 27.6211 351.233L25.6763 354.71C24.3505 357.012 22.9877 359.293 21.5878 361.553C20.2074 363.826 18.7394 366.047 17.2297 368.245C15.7245 370.47 14.0756 372.596 12.2935 374.607L11.5989 375.36L10.8035 376.063C10.2459 376.566 9.80023 376.871 9.32589 377.324C8.39991 378.217 7.53788 379.173 6.74619 380.187C5.12987 382.229 3.74262 384.441 2.60933 386.785C1.40336 389.072 0.776965 391.619 0.784978 394.203C0.830124 395.463 1.3392 396.663 2.21471 397.572C3.14018 398.458 4.31591 399.039 5.58282 399.236C6.86712 399.468 8.17604 399.534 9.47717 399.432C10.7858 399.316 12.0843 399.105 13.3621 398.8C15.9279 398.191 18.4256 397.326 20.8175 396.217C25.605 394.011 30.131 391.279 34.3118 388.07C38.5099 384.924 42.3218 381.293 45.6686 377.255C49.0185 373.286 51.524 368.678 53.0326 363.71L53.0062 364.011C52.6036 359.017 52.2799 354.016 51.9322 349.017L52.5988 349.664C50.6968 349.524 48.7944 349.407 46.8847 349.242L41.1361 348.771C37.293 348.466 33.4083 348.107 29.4721 347.755ZM29.3907 347.604C33.1898 347.679 37.0406 347.746 40.9329 347.866L46.7876 348.034C48.7454 348.081 50.7108 348.178 52.6766 348.251L53.2819 348.274L53.3435 348.898C53.8343 353.886 54.3493 358.871 54.7849 363.862L54.7979 364.01L54.7588 364.164C54.0613 366.806 53.0186 369.345 51.6576 371.715C50.3256 374.073 48.7718 376.298 47.0171 378.362C43.5337 382.461 39.5502 386.109 35.1596 389.219C30.8086 392.346 26.1013 394.947 21.1364 396.965C18.6582 397.975 16.1016 398.782 13.4919 399.376C12.1822 399.668 10.853 399.865 9.51464 399.964C8.16553 400.049 6.81108 399.983 5.47696 399.765C4.10129 399.551 2.81783 398.941 1.78349 398.011C0.776278 397.013 0.153826 395.692 0.0256903 394.28C-0.126835 391.541 0.401571 388.807 1.5638 386.321C2.61007 383.824 3.95929 381.464 5.58119 379.295C6.38882 378.191 7.29157 377.159 8.27911 376.212C8.75973 375.741 9.40147 375.278 9.81953 374.881L10.5165 374.267L11.1785 373.565C12.9305 371.617 14.5671 369.568 16.0802 367.43C17.6296 365.294 19.1309 363.117 20.6232 360.93C22.118 358.744 23.5655 356.525 25.0128 354.304L29.3907 347.604Z" fill="white"/>
<path d="M99.2919 349.927C97.8143 352.503 96.637 355.24 95.7829 358.084C95.3567 359.486 95.0914 360.933 94.9922 362.396C94.8782 363.815 95.0782 365.242 95.5779 366.575C96.0864 367.861 96.9716 368.964 98.1177 369.739C99.3343 370.5 100.656 371.078 102.041 371.456C104.859 372.395 107.748 373.174 110.644 373.92C116.442 375.393 122.267 376.832 128.136 378.079C133.991 379.395 139.916 380.372 145.884 381.003C147.366 381.162 148.855 381.244 150.346 381.252C151.088 381.252 151.829 381.202 152.565 381.102C153.306 381.019 154.044 380.916 154.778 380.795C157.686 380.297 160.669 379.569 163.032 377.972C163.602 377.631 164.091 377.17 164.465 376.621C164.838 376.072 165.087 375.448 165.194 374.793C165.234 373.443 164.819 372.119 164.014 371.033C163.228 369.904 162.16 368.999 160.915 368.41C160.284 368.108 159.621 367.875 158.939 367.717L156.756 367.132C153.849 366.338 150.953 365.495 148.077 364.55C146.64 364.075 145.208 363.568 143.791 362.986C143.082 362.697 142.376 362.377 141.673 362.034C140.905 361.671 140.192 361.201 139.556 360.638C137.465 358.541 135.221 356.601 132.843 354.835C130.479 353.007 128.101 351.179 125.688 349.414L126.151 349.551C121.727 349.667 117.294 349.76 112.821 349.807C108.355 349.878 103.852 349.91 99.2919 349.927ZM99.208 349.778C103.605 349.446 108.059 349.127 112.55 348.848C117.035 348.544 121.559 348.287 126.092 348.053L126.339 348.041L126.555 348.191C129.034 349.909 131.492 351.64 133.9 353.459C135.102 354.37 136.296 355.295 137.474 356.252C138.062 356.734 138.646 357.225 139.221 357.737C139.509 357.992 139.793 358.268 140.075 358.536L140.494 358.982L140.703 359.208C140.768 359.276 140.807 359.3 140.859 359.35C141.359 359.77 141.91 360.124 142.5 360.404C143.147 360.72 143.807 361.022 144.489 361.302C145.852 361.856 147.245 362.375 148.65 362.868C151.465 363.844 154.325 364.727 157.199 365.563L159.358 366.18C160.136 366.377 160.891 366.657 161.61 367.016C163.08 367.75 164.327 368.864 165.22 370.243C165.655 370.931 166.001 371.671 166.248 372.447C166.515 373.255 166.6 374.111 166.498 374.956C166.381 375.813 166.035 376.623 165.496 377.301C164.979 377.937 164.361 378.482 163.665 378.915C162.33 379.719 160.883 380.319 159.371 380.697C157.899 381.087 156.402 381.375 154.89 381.557C153.386 381.76 151.871 381.867 150.353 381.878C148.84 381.85 147.329 381.746 145.827 381.565C139.844 380.867 133.908 379.928 127.964 378.988C122.03 377.998 116.104 376.904 110.262 375.403C107.335 374.676 104.437 373.82 101.567 372.835C100.846 372.565 100.144 372.354 99.4154 372.021C98.6746 371.712 97.9733 371.315 97.3265 370.84C95.9871 369.892 94.977 368.55 94.4372 367.001C93.9403 365.493 93.782 363.894 93.9735 362.317C94.1429 360.789 94.4859 359.285 94.9958 357.834C95.509 356.406 96.1218 355.015 96.8298 353.672C97.5246 352.317 98.3195 351.015 99.208 349.778Z" fill="white"/>
</svg>
