<svg xmlns="http://www.w3.org/2000/svg" width="50" height="50" viewBox="0 0 50 50" fill="none">
<path d="M8.22039 0.168873L41.8194 0V14.8068C41.8194 14.8068 45.8521 16.5496 46.3385 16.8671C47.7975 17.833 49.9591 18.218 49.9591 23.1019V44.9676C49.9591 47.7506 47.703 50 44.9267 50H5.0861C2.30307 50 0.053675 47.7439 0.053675 44.9676V24.3178C0.053675 23.953 0.0942046 23.291 0.053675 22.4939C-0.0341391 20.7511 0.303608 19.0422 2.05989 17.752C3.07989 17.0022 4.39034 16.5023 5.50491 16.0024C7.01801 15.3202 8.22039 14.7933 8.22039 14.7933V0.168873Z" fill="white"/>
<path d="M8.22024 17.752L5.60608 18.9206L5.57906 18.9341C4.48476 19.3664 3.79576 19.7717 3.37695 20.1837L8.22699 22.8046V17.752H8.22024ZM44.3591 18.8935L41.8193 17.7655V22.7911L46.5882 20.2107C46.1492 19.8325 45.4467 19.4339 44.3591 18.8935Z" fill="#E9E9E9"/>
<path d="M7.53116 41.6511V28.6208C7.53116 28.2493 7.22719 27.9453 6.85567 27.9453C6.48415 27.9453 6.18018 28.2493 6.18018 28.6208V41.6511C6.18018 42.9683 7.25421 44.0423 8.57142 44.0423H28.7552C29.1267 44.0423 29.4307 43.7383 29.4307 43.3668C29.4307 42.9953 29.1267 42.6913 28.7552 42.6913H8.56467C7.99725 42.6846 7.53116 42.2185 7.53116 41.6511Z" fill="#FF7F00"/>
<path d="M49.7767 20.3123C49.7767 20.3258 49.7835 20.3326 49.7835 20.3393C49.7835 20.3326 49.7767 20.3191 49.7767 20.3123ZM31.4844 22.8657C32.5246 22.2915 33.3487 21.5012 33.8553 20.6095C34.0175 20.4609 34.112 20.265 34.1255 20.0489C34.1458 19.9948 34.1728 19.934 34.1931 19.88H34.1255C34.112 19.4207 33.727 19.0559 33.2609 19.0559C32.8151 19.0559 32.4436 19.3937 32.403 19.8395H32.3895C31.7208 20.6771 30.8359 21.2648 29.7416 21.6836C28.6473 22.1024 27.3368 22.3726 25.8102 22.3726C24.2296 22.3726 22.9191 22.0618 21.6897 21.562C20.4806 21.0756 19.4606 20.2178 18.7716 19.1167C18.0961 18.0292 17.7583 16.8673 17.7583 15.5366C17.7583 14.1721 18.1028 12.8616 18.7108 11.5985C19.2985 10.3623 20.2509 9.34231 21.4398 8.66682C22.6422 7.97106 24.0202 7.61305 25.7427 7.61305C27.7759 7.61305 29.3633 8.14669 30.4981 9.18695C31.633 10.2272 31.9707 11.5242 31.9707 13.071C31.9707 13.9357 31.8626 14.7665 31.4641 15.5704C31.0656 16.3742 30.6738 16.8133 30.0253 17.2929C29.5457 17.6576 28.4649 18.0832 28.1542 18.0832C28.0529 18.0832 27.965 18.0427 27.8907 17.9616C27.8164 17.8873 27.7827 17.7657 27.7827 17.6103C27.8029 17.3199 27.8502 17.0294 27.9178 16.739L29.3363 11.3148C29.4038 11.1932 29.4579 11.0648 29.4579 10.9162L29.4511 10.8757L29.4579 10.8487H29.4511V10.8419C29.4511 10.3893 29.0728 10.0178 28.6135 10.0178C28.3906 10.0178 28.1812 10.0989 28.0191 10.2542C27.8637 10.4096 27.7691 10.619 27.7691 10.8419L27.7759 10.9162C27.7759 10.9703 27.7962 11.0175 27.8097 11.0648L27.7219 11.3823C27.1815 10.5244 25.9115 9.99754 24.77 9.99754C23.804 9.99754 22.3584 10.6663 21.3722 12.1726C20.6427 13.3277 20.2239 14.6517 20.1698 16.0094C20.1293 17.2051 20.4873 18.2656 21.1831 18.9816C21.8788 19.6976 22.7367 19.907 23.2704 19.907C24.2498 19.907 25.1212 19.549 25.871 18.833C25.9453 19.1572 26.1344 19.4409 26.4046 19.6301C26.6681 19.8125 27.0666 19.907 27.6003 19.907C29.566 19.907 31.3763 18.8803 32.376 17.5023C33.2339 16.3337 33.7135 14.7598 33.7135 13.1588C33.7135 11.8146 33.4973 10.5717 32.8353 9.43688C32.1734 8.30205 31.3222 7.42391 30.0726 6.80921C28.8229 6.19452 27.3976 5.88379 25.7899 5.88379C23.8986 5.88379 22.2098 6.26882 20.7373 7.03213C19.2647 7.79543 18.1028 8.94377 17.2585 10.4636C16.4073 11.9902 15.9818 13.6317 15.9818 15.4015C15.9683 16.9619 16.3533 18.4952 17.1031 19.8665C17.8597 21.2783 19.062 22.3928 20.5211 23.0548C22.0545 23.7573 23.8648 24.1086 25.9723 24.1086C28.1339 24.1086 29.978 23.6965 31.4844 22.8657ZM26.2695 15.6447C26.0196 16.381 25.7292 16.9416 25.3914 17.3266C25.155 17.5968 24.9118 17.7927 24.6754 17.9211C24.3579 18.0967 24.1215 18.2318 23.7567 18.2318C23.2704 18.2318 22.6557 18.0427 22.3314 17.6644C22.0004 17.2861 21.8383 16.6984 21.8383 15.9014C21.8383 15.3069 22.149 14.6179 22.3855 13.8479C22.6219 13.0778 22.9731 12.686 23.4392 12.2672C23.9053 11.8484 24.3309 11.7336 24.878 11.7336C25.3914 11.7336 25.9318 11.8822 26.2628 12.2604C26.6005 12.6387 26.8099 12.9359 26.8099 13.6452C26.8167 14.2734 26.5127 14.9084 26.2695 15.6447Z" fill="#502266"/>
<path d="M49.7835 20.3391C49.7835 20.3256 49.7768 20.3188 49.7768 20.3121C49.1891 18.2721 47.2639 17.3196 45.5347 16.4618L45.5076 16.4483L41.8195 14.8001V0L8.22042 0.168873V14.7933L4.55925 16.428C2.45847 17.2589 0.0537109 18.6098 0.0537109 21.6631V44.9743C0.0537109 47.7439 2.30986 50 5.07938 50H44.9335C47.703 50 49.9591 47.7439 49.9591 44.9743V21.6631C49.9591 21.1767 49.8983 20.7376 49.7835 20.3391ZM41.8195 17.7655L44.3593 18.9003C45.4536 19.4407 46.1494 19.8392 46.5884 20.2108L41.8195 22.7911V17.7655ZM10.9224 15.6444V2.85734L39.1175 2.71548V24.2502L25.6752 31.5253C25.2631 31.7482 24.7633 31.7482 24.3512 31.5253L10.9224 24.2637V15.6444ZM8.22042 17.752V22.8046L3.37038 20.177C3.78919 19.7649 8.22042 17.752 8.22042 17.752ZM47.2572 44.9743C47.2572 46.2578 46.2169 47.298 44.9335 47.298H5.07938C3.79594 47.298 2.75568 46.2578 2.75568 44.9743V22.9195L23.0543 33.9098C23.6622 34.2407 24.3309 34.4029 25.0064 34.4029C25.6752 34.4029 26.3439 34.2407 26.9586 33.9098L47.2572 22.9195V44.9743Z" fill="#502266"/>
</svg>