<svg xmlns="http://www.w3.org/2000/svg" width="18" height="18" viewBox="0 0 18 18" fill="none">
  <path d="M12.6225 2.1463C12.0898 2.14585 11.5623 2.25177 11.071 2.45785C10.5797 2.66394 10.1345 2.96603 9.7615 3.34643L9.16679 3.94649L8.57209 3.34643C8.19863 2.96672 7.75332 2.66515 7.26212 2.45929C6.77092 2.25344 6.24366 2.14743 5.71107 2.14743C5.17848 2.14743 4.65122 2.25344 4.16002 2.45929C3.66882 2.66515 3.22351 2.96672 2.85005 3.34643C2.09027 4.11988 1.66455 5.16074 1.66455 6.24495C1.66455 7.32916 2.09027 8.37002 2.85005 9.14347L9.16679 15.5406L15.4835 9.14347C16.2433 8.37002 16.669 7.32916 16.669 6.24495C16.669 5.16074 16.2433 4.11988 15.4835 3.34643C15.1102 2.96652 14.6649 2.66474 14.1737 2.45869C13.6825 2.25264 13.1552 2.14645 12.6225 2.1463Z" fill="#FF7F00"/>
</svg>