<svg xmlns="http://www.w3.org/2000/svg" width="25" height="26" viewBox="0 0 25 26" fill="none">
  <path d="M7.47821 20.2987C6.11705 20.2987 5.01575 21.4123 5.01575 22.7735C5.01575 24.1346 6.11705 25.2483 7.47821 25.2483C8.83937 25.2483 9.95304 24.1346 9.95304 22.7735C9.95304 21.4123 8.83937 20.2987 7.47821 20.2987ZM19.8524 20.2987C18.4912 20.2987 17.3899 21.4123 17.3899 22.7735C17.3899 24.1346 18.4912 25.2483 19.8524 25.2483C21.2135 25.2483 22.3272 24.1346 22.3272 22.7735C22.3272 21.4123 21.2135 20.2987 19.8524 20.2987ZM7.68857 16.2771L7.72569 16.1286L8.83937 14.1116H18.0581C18.9862 14.1116 19.8029 13.6042 20.2236 12.837L25 4.16275L22.8469 2.97483H22.8345L21.4734 5.44966L18.0581 11.6367H9.37145L9.21059 11.3026L6.43878 5.44966L5.26323 2.97483L4.10006 0.5H0.0537109V2.97483H2.52854L6.98324 12.3668L5.31273 15.3985C5.11474 15.745 5.00338 16.1533 5.00338 16.5864C5.00338 17.9476 6.11705 19.0612 7.47821 19.0612H22.3272V16.5864H7.99792C7.83706 16.5864 7.68857 16.4503 7.68857 16.2771Z" fill="#502266"/>
</svg>