<svg xmlns="http://www.w3.org/2000/svg" width="28" height="26" viewBox="0 0 28 26" fill="none">
<path d="M19.6363 0.5C17.2897 0.5 15.0375 1.59238 13.5675 3.31861C12.0975 1.59238 9.84529 0.5 7.4987 0.5C3.34495 0.5 0.0812988 3.76365 0.0812988 7.9174C0.0812988 13.0152 4.6666 17.1689 11.612 23.4804L13.5675 25.2471L15.523 23.467C22.4684 17.1689 27.0537 13.0152 27.0537 7.9174C27.0537 3.76365 23.79 0.5 19.6363 0.5ZM13.7023 21.471L13.5675 21.6059L13.4326 21.471C7.01319 15.6585 2.77853 11.8149 2.77853 7.9174C2.77853 5.22016 4.80146 3.19724 7.4987 3.19724C9.57557 3.19724 11.5985 4.53237 12.3133 6.37997H14.8352C15.5365 4.53237 17.5594 3.19724 19.6363 3.19724C22.3335 3.19724 24.3564 5.22016 24.3564 7.9174C24.3564 11.8149 20.1218 15.6585 13.7023 21.471Z" fill="#502266"/>
</svg>