<svg xmlns="http://www.w3.org/2000/svg" width="21" height="21" viewBox="0 0 21 21" fill="none">
<path d="M14.8489 13.4147H13.9546L13.6376 13.1091C14.7471 11.8185 15.415 10.143 15.415 8.32041C15.415 4.25625 12.1206 0.961914 8.05649 0.961914C3.99234 0.961914 0.697998 4.25625 0.697998 8.32041C0.697998 12.3846 3.99234 15.6789 8.05649 15.6789C9.87913 15.6789 11.5546 15.011 12.8452 13.9015L13.1508 14.2185V15.1129L18.8112 20.7619L20.498 19.0751L14.8489 13.4147ZM8.05649 13.4147C5.23762 13.4147 2.96215 11.1393 2.96215 8.32041C2.96215 5.50154 5.23762 3.22607 8.05649 3.22607C10.8754 3.22607 13.1508 5.50154 13.1508 8.32041C13.1508 11.1393 10.8754 13.4147 8.05649 13.4147Z" fill="#FFF5EB"/>
</svg>