<svg xmlns="http://www.w3.org/2000/svg" width="20" height="20" viewBox="0 0 20 20" fill="none">
<path d="M1.82222 13.6333V18.9889C1.82515 19.2581 1.93414 19.5152 2.12552 19.7045C2.31691 19.8938 2.57525 20 2.84444 20H9.08889V13.6333H1.82222ZM10.9111 20H17.1556C17.4248 20 17.6831 19.8938 17.8745 19.7045C18.0659 19.5152 18.1749 19.2581 18.1778 18.9889V13.6333H10.9111V20ZM19 4.54445H16.9556C17.165 4.11913 17.2751 3.65184 17.2778 3.17778C17.2748 2.33396 16.9376 1.5257 16.3399 0.930072C15.7421 0.334441 14.9327 -5.12218e-06 14.0889 0C13.2074 0.0418046 12.3557 0.332117 11.6321 0.837406C10.9086 1.3427 10.3428 2.04235 10 2.85556C9.65721 2.04235 9.09138 1.3427 8.36785 0.837406C7.64433 0.332117 6.79262 0.0418046 5.91111 0C5.06729 -5.12218e-06 4.25786 0.334441 3.66015 0.930072C3.06243 1.5257 2.72516 2.33396 2.72222 3.17778C2.72486 3.65184 2.83503 4.11913 3.04444 4.54445H1C0.444445 4.54445 0 5.2 0 6V10.3667C0 11.1667 0.444445 11.8222 1 11.8222H9.08889V4.54445H10.9111V11.8222H19C19.5556 11.8222 20 11.1667 20 10.3667V6C20 5.2 19.5556 4.54445 19 4.54445ZM5.91111 4.54445C5.72203 4.56155 5.53146 4.53906 5.35155 4.47843C5.17164 4.4178 5.00634 4.32035 4.86618 4.1923C4.72602 4.06424 4.61408 3.90839 4.53749 3.73467C4.4609 3.56095 4.42134 3.37318 4.42134 3.18333C4.42134 2.99348 4.4609 2.80571 4.53749 2.632C4.61408 2.45828 4.72602 2.30243 4.86618 2.17437C5.00634 2.04631 5.17164 1.94886 5.35155 1.88823C5.53146 1.8276 5.72203 1.80512 5.91111 1.82222C7.46667 1.82222 8.34444 3.42222 8.77778 4.54445H5.91111ZM14.0889 4.54445H11.2222C11.6556 3.43333 12.5333 1.82222 14.0889 1.82222C14.278 1.80512 14.4685 1.8276 14.6484 1.88823C14.8284 1.94886 14.9937 2.04631 15.1338 2.17437C15.274 2.30243 15.3859 2.45828 15.4625 2.632C15.5391 2.80571 15.5787 2.99348 15.5787 3.18333C15.5787 3.37318 15.5391 3.56095 15.4625 3.73467C15.3859 3.90839 15.274 4.06424 15.1338 4.1923C14.9937 4.32035 14.8284 4.4178 14.6484 4.47843C14.4685 4.53906 14.278 4.56155 14.0889 4.54445Z" fill="#240F2E"/>
</svg>